<svg width="324" height="214" viewBox="0 0 324 214" fill="none" xmlns="http://www.w3.org/2000/svg">
<path d="M9.63732 212.33C9.29036 212.33 8.95761 212.192 8.71227 211.947C8.46694 211.702 8.32911 211.369 8.32911 211.022V48.9088C8.32308 38.974 11.3546 29.2748 17.0171 21.1117C22.6797 12.9486 30.7026 6.71177 40.0102 3.23757C49.3178 -0.236641 59.465 -0.782197 69.0915 1.67405C78.7179 4.1303 87.3632 9.47093 93.8684 16.9799C93.9829 17.1099 94.0707 17.2611 94.1268 17.4251C94.1829 17.589 94.2061 17.7623 94.1952 17.9353C94.1842 18.1082 94.1393 18.2772 94.0631 18.4328C93.9868 18.5883 93.8806 18.7274 93.7507 18.8419C93.6207 18.9564 93.4694 19.0442 93.3055 19.1003C93.1415 19.1563 92.9682 19.1796 92.7953 19.1686C92.6224 19.1577 92.4533 19.1128 92.2977 19.0366C92.1422 18.9603 92.0032 18.8541 91.8886 18.7241C85.7328 11.6246 77.554 6.57613 68.4485 4.25525C59.3429 1.93438 49.7454 2.45199 40.9423 5.73871C32.1391 9.02543 24.5508 14.9242 19.1942 22.6447C13.8376 30.3651 10.9686 39.5383 10.9717 48.935V211.022C10.9717 211.196 10.937 211.368 10.8697 211.529C10.8023 211.689 10.7036 211.834 10.5793 211.956C10.4551 212.078 10.3077 212.174 10.146 212.238C9.98424 212.302 9.8113 212.333 9.63732 212.33Z" fill="#263238"/>
<path d="M37.9729 213.882H0L2.29372 207.673H35.6792L37.9729 213.882Z" fill="black"/>
<path opacity="0.2" d="M37.9729 213.882H0L2.29372 207.673H35.6792L37.9729 213.882Z" fill="white"/>
<path opacity="0.2" d="M37.9724 213.882H13.7793V207.673H35.6787L37.9724 213.882Z" fill="white"/>
<path d="M90.7063 14.2857L91.1511 14.1598C94.0311 13.3448 97.1169 13.7073 99.7296 15.1675C102.342 16.6278 104.268 19.0661 105.083 21.9461L105.503 23.4314L83.332 29.7053L82.9117 28.2199C82.5079 26.7932 82.3893 25.3009 82.5626 23.8283C82.7359 22.3557 83.1977 20.9316 83.9215 19.6376C84.6454 18.3435 85.6172 17.2048 86.7814 16.2865C87.9456 15.3682 89.2793 14.6883 90.7063 14.2857Z" fill="#263238"/>
<path opacity="0.2" d="M105.135 22.1778L105.493 23.4424L83.3233 29.7218L82.9657 28.4572C82.1413 25.5197 82.5157 22.3751 84.0068 19.7134C85.498 17.0516 87.984 15.0899 90.9196 14.2588C91.7426 14.0305 92.5875 13.8902 93.4401 13.8402C96.0493 13.7001 98.6286 14.4517 100.754 15.9717C102.88 17.4917 104.425 19.6895 105.135 22.204V22.1778Z" fill="white"/>
<path opacity="0.2" d="M105.137 22.1777L105.494 23.4423L91.3307 27.4542L90.9731 26.1896C89.473 20.9044 90.5894 15.8199 93.4413 13.8139C96.0505 13.6738 98.6298 14.4255 100.755 15.9455C102.881 17.4655 104.426 19.6633 105.137 22.1777Z" fill="white"/>
<path d="M190.676 87.9108C189.918 87.4616 189.254 86.8692 188.722 86.1666C187.275 84.1868 186.786 74.6979 184.362 72.2123C183.934 71.7763 182.286 71.2007 179.862 70.5465C172.091 68.4709 156.314 65.6277 147.244 64.0579L146.162 63.866V56.9935L147.034 57.2464C155.145 59.514 171.786 64.2235 180.943 67.3981C184.388 68.5842 186.76 69.5349 187.24 70.0145C188.984 71.8373 191.26 82.4338 192.167 86.8468C192.202 87.0359 192.182 87.2309 192.11 87.4091C192.038 87.5872 191.916 87.7411 191.76 87.8528C191.603 87.9644 191.418 88.0292 191.226 88.0394C191.034 88.0497 190.844 88.0051 190.676 87.9108Z" fill="#263238"/>
<path opacity="0.4" d="M180.959 67.3807L179.852 70.5117C172.081 68.436 156.304 65.5928 147.234 64.023L146.789 58.3889C146.77 58.1079 146.808 57.8259 146.903 57.5604C146.945 57.447 146.995 57.3363 147.051 57.229C155.162 59.4966 171.802 64.2497 180.959 67.3807Z" fill="white"/>
<path d="M146.197 56.9935L144.609 56.5487C144.313 56.4702 145.386 54.4905 145.386 54.4905L141.156 56.008C140.896 56.0955 140.672 56.2637 140.515 56.4882C140.358 56.7126 140.277 56.9814 140.284 57.2552L140.371 61.799C140.377 62.1015 140.488 62.3924 140.685 62.6217C140.883 62.851 141.154 63.0042 141.452 63.0549L146.179 63.8572L146.197 56.9935Z" fill="#263238"/>
<path opacity="0.1" d="M145.325 54.4644C144.95 54.8498 144.471 55.1167 143.947 55.2318C142.793 55.5898 141.674 56.0541 140.606 56.6185C140.275 56.8976 140.606 61.6246 140.606 62.0781C140.606 62.5316 144.653 63.0811 144.653 63.0811L144.548 56.5226L145.325 54.4644Z" fill="white"/>
<path opacity="0.1" d="M144.452 55.5022C143.235 55.8694 142.038 56.3032 140.868 56.8017C140.823 57.3822 140.823 57.9654 140.868 58.546C140.868 58.546 141.321 57.4035 141.74 57.6738C142.159 57.9442 141.949 58.7291 142.734 58.546C143.519 58.3628 143.929 59.3047 143.929 59.3047C143.929 59.3047 143.781 56.1214 144.452 55.5022Z" fill="white"/>
<path d="M291.697 70.0233C289.525 67.7034 245.578 55.572 245.578 55.572C245.578 55.572 241.043 54.194 238.941 53.723L238.261 62.6276H244.366C244.366 62.6276 286.385 69.6919 288.801 72.2211C291.217 74.7503 291.697 84.213 293.162 86.1753C293.657 86.8299 294.262 87.3936 294.95 87.8411C295.131 87.9548 295.341 88.013 295.555 88.0082C295.768 88.0035 295.976 87.936 296.151 87.8143C296.327 87.6926 296.463 87.5219 296.542 87.3236C296.622 87.1252 296.641 86.9078 296.598 86.6986C295.656 82.1547 293.38 71.8199 291.697 70.0233Z" fill="#263238"/>
<path d="M187.424 60.1245C187.576 62.1859 187.461 64.2584 187.083 66.2906C186.464 68.7587 184.711 69.1948 182.81 72.6048C180.909 76.0149 185.976 58.1186 187.424 60.1245Z" fill="#263238"/>
<path d="M201.657 59.8804C202.608 61.8681 203.331 63.9571 203.812 66.1074C204.195 68.6018 202.608 69.0378 202.067 72.474C201.527 75.9103 199.399 57.8657 201.657 59.8804Z" fill="#263238"/>
<path d="M241.905 55.5719C241.876 55.2178 241.735 54.882 241.504 54.6126C241.286 54.3858 235.974 49.0222 220.895 49.0222C207.133 49.0222 199.484 54.255 199.161 54.5254C199.109 54.569 199.057 54.6388 199.004 54.6911C197.365 53.6532 193.353 51.9002 188.155 54.6911C188.112 54.6174 188.059 54.5499 187.998 54.4905C187.728 54.2637 181.239 48.9873 167.485 48.9873C152.397 48.9873 145.917 54.3509 145.682 54.5777C145.394 54.8368 145.18 55.1679 145.063 55.5371C144.973 55.8187 144.935 56.114 144.949 56.4092L146.458 76.5556C146.973 83.4106 151.002 88.1899 156.261 88.1899H165.767C172.744 88.1899 179.477 82.2158 182.573 73.3025C182.573 73.3025 187.71 60.4123 187.911 60.2902C193.693 56.6621 197.801 60.0809 197.967 60.2292C198.132 60.3774 200.504 73.3112 200.504 73.3112C201.638 82.2245 207.08 88.1986 214.031 88.1986H223.538C228.77 88.1986 233.89 83.4193 235.905 76.5643L241.853 56.4179C241.922 56.1416 241.94 55.8547 241.905 55.5719ZM201.42 57.3773C201.539 56.9759 201.808 56.6355 202.17 56.4266C207.903 53.7639 214.165 52.4341 220.485 52.5369C230.332 52.5369 235.756 54.9178 238.146 56.383C238.297 56.4882 238.422 56.6259 238.513 56.7858C238.603 56.9458 238.657 57.1241 238.669 57.3075C238.713 57.5997 238.689 57.8981 238.599 58.1796L233.367 75.7881C231.814 81.0645 227.881 84.7711 223.834 84.7711H214.328C208.537 84.7711 203.967 79.7389 202.99 72.3344L201.246 58.3279C201.221 58.0013 201.281 57.6737 201.42 57.3773ZM147.845 57.3075C147.97 56.9189 148.234 56.5899 148.586 56.383C151.298 54.9178 157.246 52.5369 167.102 52.5369C176.111 52.5369 181.867 54.9353 184.544 56.4266C184.704 56.5312 184.838 56.6715 184.935 56.8364C185.032 57.0014 185.089 57.1865 185.103 57.3773C185.148 57.6915 185.115 58.012 185.007 58.3104L180.21 72.3083C177.637 79.7214 171.951 84.7537 166.16 84.7537H156.653C152.607 84.7537 149.484 81.0471 149.092 75.7707L147.775 58.1622C147.745 57.8754 147.769 57.5856 147.845 57.3075Z" fill="#263238"/>
<path d="M240.955 55.8771C240.924 55.5295 240.78 55.2015 240.545 54.9439C240.327 54.7172 235.007 49.4931 219.927 49.4931C206.165 49.4931 198.534 54.63 198.211 54.848C198.155 54.8989 198.102 54.9543 198.054 55.0137C196.406 54.0108 192.394 52.2926 187.205 55.0137L187.048 54.8218C186.778 54.6038 180.271 49.4669 166.518 49.4669C151.43 49.4669 144.958 54.6997 144.714 54.9178C144.425 55.1653 144.211 55.4885 144.095 55.851C144.005 56.1323 143.969 56.4284 143.99 56.7231L145.552 76.3549C146.084 83.0355 150.13 87.6927 155.389 87.6927H164.896C171.873 87.6927 178.588 81.8756 181.658 73.1891C181.658 73.1891 186.76 60.6216 186.952 60.5082C192.734 56.976 196.851 60.3076 197.016 60.4559C197.182 60.6041 199.589 73.1891 199.589 73.1891C200.749 81.9105 206.2 87.6927 213.16 87.6927H222.666C227.899 87.6927 233.001 83.0355 234.998 76.3549L240.885 56.7231C240.965 56.4487 240.989 56.161 240.955 55.8771ZM200.47 57.6214C200.596 57.2279 200.867 56.8972 201.229 56.6969C206.977 54.0891 213.233 52.7932 219.544 52.9031C229.39 52.9031 234.824 55.2318 237.213 56.6533C237.36 56.7512 237.484 56.88 237.576 57.0306C237.667 57.1813 237.725 57.3501 237.745 57.5255C237.787 57.8178 237.763 58.1157 237.675 58.3976L232.539 75.5526C231.004 80.6895 227.079 84.2739 223.024 84.2739H213.517C207.726 84.2739 203.148 79.3725 202.179 72.16L200.365 58.5197C200.329 58.2191 200.365 57.9142 200.47 57.6301V57.6214ZM146.903 57.5516C147.036 57.1831 147.296 56.8739 147.636 56.6795C150.348 55.2579 156.288 52.9293 166.143 52.9293C175.152 52.9293 180.917 55.2666 183.585 56.7231C183.746 56.8216 183.881 56.9567 183.98 57.1173C184.078 57.278 184.137 57.4597 184.152 57.6476C184.197 57.956 184.164 58.2709 184.056 58.5633L179.234 72.1948C176.678 79.4161 171.009 84.3175 165.218 84.3175H155.79C151.744 84.3175 148.613 80.7069 148.203 75.5962L146.834 58.4412C146.798 58.1459 146.822 57.8464 146.903 57.5604V57.5516Z" fill="#263238"/>
<path opacity="0.1" d="M187.71 59.296C187.71 59.296 188.347 56.6796 188.076 55.9383C187.806 55.1969 190.248 54.2812 191.696 54.2376C192.55 54.1206 193.419 54.1921 194.242 54.4469C194.469 54.6388 193.108 54.3946 192.21 55.1708C191.312 55.947 192.271 56.5749 191.199 57.2814C190.126 57.9878 190.701 58.075 190.422 58.293C189.538 58.6794 188.633 59.0143 187.71 59.296Z" fill="white"/>
<path opacity="0.1" d="M183.821 53.4178C183.821 53.4178 178.178 49.8246 165.62 49.8246C153.061 49.8246 146.084 54.3946 145.029 55.572C143.973 56.7494 144.558 59.1216 145.316 68.122C146.075 77.1225 146.345 81.8582 150.305 84.7537C150.305 84.7537 147.436 80.1052 147.627 78.3348C147.819 76.5643 146.86 71.6542 146.529 65.8632C146.197 60.0722 145.491 56.6621 146.529 55.9993C147.566 55.3365 152.852 51.8043 162.55 51.4468C172.248 51.0892 177.428 53.3655 178.44 52.912C179.452 52.4584 181.998 53.5399 182.6 53.5399C183.01 53.5337 183.418 53.4928 183.821 53.4178Z" fill="white"/>
<g opacity="0.4">
<path d="M165.201 84.9713H155.694C151.517 84.9713 148.325 81.195 147.915 75.7877L146.598 58.1792C146.582 57.8605 146.623 57.5415 146.72 57.2373C146.871 56.7923 147.182 56.4193 147.592 56.1908C150.278 54.743 156.261 52.3185 166.212 52.3185C175.352 52.3185 181.143 54.7779 183.786 56.2344C183.978 56.3526 184.139 56.5147 184.255 56.7073C184.372 56.8998 184.441 57.1174 184.458 57.342C184.509 57.6913 184.473 58.0479 184.353 58.3798L179.486 72.334C176.844 79.9129 171.114 84.9713 165.201 84.9713ZM166.186 52.7546C156.331 52.7546 150.418 55.1442 147.775 56.5745C147.466 56.7516 147.237 57.0426 147.139 57.3856C147.052 57.6286 147.016 57.8869 147.034 58.1444L148.351 75.7528C148.735 80.9246 151.761 84.5352 155.694 84.5352H165.201C170.922 84.5352 176.486 79.5902 179.042 72.2294L183.908 58.2752C184.011 57.9966 184.041 57.6964 183.995 57.403C183.986 57.2457 183.942 57.0924 183.865 56.9549C183.787 56.8174 183.68 56.6992 183.551 56.6094C180.943 55.1791 175.222 52.7546 166.186 52.7546Z" fill="white"/>
<path d="M222.945 84.9717H213.438C207.517 84.9717 202.886 79.8959 201.909 72.3432L200.164 58.3366C200.119 57.9859 200.161 57.6293 200.287 57.2988C200.426 56.8434 200.74 56.4612 201.159 56.2348C206.927 53.5449 213.232 52.2057 219.596 52.3189C229.538 52.3189 234.998 54.7434 237.37 56.1999C237.549 56.3218 237.698 56.4822 237.807 56.6693C237.915 56.8565 237.981 57.0656 237.998 57.2813C238.04 57.5973 238.014 57.9187 237.919 58.2233L232.687 75.8317C231.134 81.2128 227.131 84.9717 222.945 84.9717ZM219.561 52.7549C213.267 52.6415 207.029 53.9659 201.324 56.6272C201.007 56.8036 200.772 57.0982 200.67 57.4471C200.562 57.7241 200.526 58.0243 200.566 58.3192L202.31 72.3257C203.252 79.6517 207.708 84.5356 213.404 84.5356H222.945C226.904 84.5356 230.742 80.9075 232.268 75.7096L237.501 58.1012C237.577 57.8558 237.598 57.5967 237.562 57.3424C237.553 57.1914 237.511 57.0443 237.439 56.9115C237.366 56.7788 237.265 56.6638 237.143 56.5749C234.815 55.1446 229.433 52.7549 219.596 52.7549H219.561Z" fill="white"/>
</g>
<path opacity="0.1" d="M198.526 55.3453C197.994 55.8249 198.229 56.418 198.273 57.6826C198.272 58.5651 198.16 59.4441 197.941 60.299C197.941 60.299 200.506 74.6544 200.924 75.7969C201.343 76.9394 201.57 76.4597 201.718 76.2766C201.866 76.0934 202.729 77.4714 202.729 77.4714C201.582 73.5791 200.822 69.5826 200.462 65.5406C199.677 58.0402 199.372 56.9762 199.878 56.2436C200.383 55.511 206.663 52.7027 211.983 52.1009C217.22 51.5265 222.505 51.5265 227.742 52.1009C231.484 52.6416 231.615 51.4294 232.19 51.6736C232.908 51.8635 233.646 51.966 234.388 51.9788C234.388 51.9788 224.175 48.8042 213.457 50.2345C202.738 51.6648 198.526 55.3453 198.526 55.3453Z" fill="white"/>
<path d="M214.782 57.8046C216.457 54.6824 214.503 55.9993 213.195 58.0401C211.887 60.0809 207.029 76.7562 207.866 80.5936C206.84 78.5563 205.674 76.5922 204.378 74.7154C203.976 74.2706 203.558 71.9594 203.192 69.1773C202.86 66.6568 202.572 63.7526 202.38 61.4763C202.223 59.5227 202.128 58.0401 202.154 57.6738C202.197 56.4266 209.227 53.723 219.125 53.723C219.125 53.723 213.178 66.0114 211.529 71.2356C211.503 71.2356 213.116 60.9182 214.782 57.8046Z" fill="white"/>
<path opacity="0.2" d="M203.164 69.2034C202.832 66.6829 202.544 63.7787 202.353 61.5024C203.001 62.9901 203.489 64.5425 203.809 66.1335C203.972 67.2012 203.743 68.2918 203.164 69.2034Z" fill="black"/>
<path opacity="0.1" d="M245.107 55.694C245.107 55.694 241.618 54.6387 239.656 54.1677V54.2375C237.633 52.7549 231.807 49.4931 219.884 49.4931C206.122 49.4931 198.491 54.63 198.168 54.848C198.112 54.8989 198.059 54.9543 198.011 55.0137C196.363 54.0108 192.351 52.2926 187.162 55.0137C187.11 54.9527 187.066 54.8829 187.005 54.8218C186.735 54.6038 180.228 49.4669 166.475 49.4669C151.387 49.4669 144.916 54.6997 144.671 54.9178C144.382 55.1653 144.168 55.4885 144.052 55.851C143.962 56.1323 143.926 56.4284 143.947 56.7231L145.509 76.3549C146.041 83.0355 150.087 87.6927 155.346 87.6927H164.853C171.83 87.6927 178.545 81.8756 181.615 73.1891C181.615 73.1891 186.717 60.6216 186.909 60.5082C192.691 56.976 196.808 60.3076 196.973 60.4559C197.139 60.6041 199.546 73.1891 199.546 73.1891C200.706 81.9105 206.157 87.6927 213.117 87.6927H222.623C227.856 87.6927 232.958 83.0355 234.955 76.3549L239.952 59.6971L239.63 61.8338H243.99C243.99 61.8338 244.566 61.7292 244.671 61.4152C244.775 61.1012 245.543 57.0545 245.543 56.5661C245.504 56.2333 245.35 55.9246 245.107 55.694ZM184.057 58.5459L179.234 72.1774C176.679 79.3987 171.01 84.3001 165.219 84.3001H155.791C151.744 84.3001 148.613 80.6895 148.203 75.5787L146.834 58.4238C146.814 58.1284 146.853 57.832 146.948 57.5516C147.08 57.1831 147.34 56.8739 147.68 56.6795C150.393 55.2579 156.332 52.9293 166.187 52.9293C175.196 52.9293 180.961 55.2666 183.63 56.7231C183.79 56.8216 183.926 56.9567 184.024 57.1173C184.123 57.278 184.182 57.4597 184.197 57.6476C184.236 57.9511 184.2 58.2596 184.092 58.5459H184.057ZM237.65 58.3976L232.539 75.5526C231.004 80.6895 227.08 84.2739 223.024 84.2739H213.518C207.727 84.2739 203.148 79.3725 202.18 72.16L200.366 58.5197C200.326 58.2105 200.362 57.8961 200.471 57.604C200.597 57.2104 200.868 56.8798 201.229 56.6795C206.977 54.0717 213.234 52.7757 219.544 52.8857C229.391 52.8857 234.824 55.2143 237.214 56.6359C237.361 56.7338 237.484 56.8626 237.576 57.0132C237.668 57.1638 237.726 57.3327 237.746 57.508C237.793 57.8054 237.772 58.1095 237.685 58.3976H237.65Z" fill="white"/>
<path opacity="0.1" d="M240.388 54.9265C240.989 55.2579 241.112 55.4759 240.946 56.4964C240.78 57.5168 240.388 59.2436 240.388 59.2436C240.388 59.2436 240.658 58.0662 241.687 58.1273C242.714 58.1966 243.744 58.0419 244.705 57.6737C244.888 57.4383 245.158 56.3917 245.001 56.2958C244.844 56.1998 242.385 55.2928 241.687 55.1097C241.262 54.9989 240.826 54.9374 240.388 54.9265Z" fill="white"/>
<path d="M165.977 53.723C165.977 53.723 163.91 57.3075 161.616 61.4066C160.744 62.959 159.872 64.5899 159 66.1248C157.483 68.8982 156.209 71.3577 155.773 72.4914C155.834 72.1513 156.462 69.1773 157.273 65.8196C157.709 64.0753 158.189 62.1915 158.686 60.5867C159.004 59.4625 159.383 58.3562 159.82 57.2726C159.75 57.3773 159.122 58.1884 158.076 59.3309C157.87 59.6234 157.7 59.9396 157.57 60.2728C157.073 61.3804 156.34 63.3165 155.555 65.5056C153.471 71.3489 150.915 79.1807 150.915 79.1807C150.256 78.5797 149.862 77.7428 149.816 76.8521C149.816 76.8521 149.258 69.8227 148.857 64.3195C148.622 60.9792 148.438 58.2145 148.482 57.857C148.496 57.7898 148.526 57.727 148.569 57.6738C149.52 56.6011 156.541 53.8364 165.977 53.723Z" fill="white"/>
<path opacity="0.2" d="M157.63 60.238C157.133 61.3456 156.401 63.2818 155.616 65.4708C153.217 65.0435 150.95 64.5987 148.918 64.2847C148.682 60.9444 148.499 58.1798 148.543 57.8222C148.557 57.755 148.586 57.6922 148.63 57.639C151.159 58.3804 154.281 59.2699 157.63 60.238Z" fill="black"/>
<path opacity="0.2" d="M161.633 61.4065C160.761 62.9589 159.889 64.5898 159.017 66.1248L157.272 65.8195C157.709 64.0752 158.188 62.1914 158.685 60.5867L161.633 61.4065Z" fill="black"/>
<path d="M148.446 162.453H200.983V139.664H148.446V162.453Z" fill="#407BFF"/>
<path opacity="0.8" d="M148.446 162.453H200.983V139.664H148.446V162.453Z" fill="white"/>
<path opacity="0.2" d="M196.764 141.896H148.438V139.672H196.72L196.764 141.896Z" fill="black"/>
<path opacity="0.2" d="M196.771 143.841L153.173 144.774L196.771 145.699V143.841Z" fill="black"/>
<path opacity="0.2" d="M196.772 152.266L150.601 153.051L196.772 153.705V152.266Z" fill="black"/>
<path opacity="0.2" d="M196.772 157.193L151.011 158.118L196.772 159.051V157.193Z" fill="black"/>
<path opacity="0.2" d="M148.438 147.085L192.708 148.429L148.438 149.353V147.085Z" fill="black"/>
<path d="M265.68 150.949C265.681 152.305 265.414 153.647 264.896 154.899C264.377 156.152 263.616 157.289 262.657 158.247C261.697 159.205 260.559 159.964 259.305 160.48C258.052 160.997 256.709 161.261 255.354 161.258H146.014C145.812 161.26 145.619 161.342 145.477 161.486C145.335 161.629 145.255 161.823 145.255 162.025V162.836C145.254 162.937 145.273 163.036 145.31 163.129C145.348 163.222 145.403 163.307 145.474 163.378C145.545 163.45 145.629 163.506 145.721 163.545C145.814 163.584 145.913 163.604 146.014 163.604H255.903C257.575 163.601 259.229 163.269 260.772 162.625C262.315 161.982 263.715 161.04 264.893 159.853C266.07 158.667 267.002 157.259 267.634 155.712C268.266 154.164 268.586 152.507 268.575 150.836C268.493 147.454 267.084 144.241 264.653 141.89C262.221 139.538 258.963 138.237 255.58 138.268H146.014C145.812 138.268 145.619 138.348 145.477 138.49C145.335 138.633 145.255 138.826 145.255 139.027V139.847C145.254 139.947 145.273 140.047 145.31 140.14C145.348 140.233 145.403 140.317 145.474 140.389C145.545 140.46 145.629 140.517 145.721 140.556C145.814 140.594 145.913 140.614 146.014 140.614H255.031C257.804 140.604 260.471 141.68 262.462 143.611C264.452 145.543 265.607 148.177 265.68 150.949Z" fill="#263238"/>
<path opacity="0.4" d="M265.68 150.949C265.681 152.305 265.414 153.647 264.896 154.899C264.377 156.152 263.616 157.289 262.657 158.247C261.697 159.205 260.559 159.964 259.305 160.48C258.052 160.997 256.709 161.261 255.354 161.258H146.014C145.812 161.26 145.619 161.342 145.477 161.486C145.335 161.629 145.255 161.823 145.255 162.025V162.836C145.254 162.937 145.273 163.036 145.31 163.129C145.348 163.222 145.403 163.307 145.474 163.378C145.545 163.45 145.629 163.506 145.721 163.545C145.814 163.584 145.913 163.604 146.014 163.604H255.903C257.575 163.601 259.229 163.269 260.772 162.625C262.315 161.982 263.715 161.04 264.893 159.853C266.07 158.667 267.002 157.259 267.634 155.712C268.266 154.164 268.586 152.507 268.575 150.836C268.493 147.454 267.084 144.241 264.653 141.89C262.221 139.538 258.963 138.237 255.58 138.268H146.014C145.812 138.268 145.619 138.348 145.477 138.49C145.335 138.633 145.255 138.826 145.255 139.027V139.847C145.254 139.947 145.273 140.047 145.31 140.14C145.348 140.233 145.403 140.317 145.474 140.389C145.545 140.46 145.629 140.517 145.721 140.556C145.814 140.594 145.913 140.614 146.014 140.614H255.031C257.804 140.604 260.471 141.68 262.462 143.611C264.452 145.543 265.607 148.177 265.68 150.949Z" fill="white"/>
<path d="M305.579 151.08C305.584 152.581 305.292 154.068 304.721 155.456C304.15 156.844 303.31 158.106 302.251 159.169C301.191 160.232 299.932 161.075 298.545 161.651C297.159 162.226 295.673 162.522 294.172 162.522H196.78V139.672H294.172C297.197 139.672 300.099 140.874 302.238 143.013C304.378 145.153 305.579 148.054 305.579 151.08Z" fill="#407BFF"/>
<path opacity="0.7" d="M196.78 139.672V162.522H294.172C297.144 162.44 299.967 161.202 302.04 159.071C304.113 156.939 305.273 154.083 305.273 151.11C305.273 148.137 304.113 145.281 302.04 143.15C299.967 141.019 297.144 139.781 294.172 139.698L196.78 139.672Z" fill="white"/>
<path opacity="0.2" d="M196.771 145.699V143.841L293.858 144.626L196.771 145.699Z" fill="black"/>
<path opacity="0.2" d="M196.771 153.705V152.266L240.352 153.827L196.771 153.705Z" fill="black"/>
<path opacity="0.2" d="M196.771 159.051V157.193L267.04 158.266L196.771 159.051Z" fill="black"/>
<path opacity="0.2" d="M294.329 141.896C296.204 141.899 298.012 142.594 299.405 143.85C298.802 145.03 298.322 146.269 297.974 147.548L200.574 148.315L297.748 148.559C297.407 150.276 297.436 152.045 297.835 153.749L232.241 155.179L298.454 155.946C299.021 157.53 299.758 159.048 300.652 160.473C302.656 159.092 304.166 157.106 304.961 154.805C305.755 152.505 305.794 150.011 305.07 147.687C304.346 145.363 302.898 143.332 300.937 141.89C298.976 140.448 296.606 139.671 294.172 139.672H196.78V141.896H294.329Z" fill="black"/>
<path d="M304.682 150.949C304.681 152.305 304.413 153.647 303.893 154.899C303.372 156.151 302.611 157.288 301.651 158.245C300.691 159.202 299.552 159.961 298.299 160.478C297.046 160.995 295.703 161.26 294.347 161.258H195.133C194.931 161.26 194.738 161.342 194.596 161.486C194.454 161.629 194.374 161.823 194.374 162.025V162.836C194.373 162.937 194.392 163.036 194.429 163.129C194.467 163.222 194.523 163.307 194.593 163.378C194.664 163.45 194.748 163.506 194.84 163.545C194.933 163.584 195.032 163.604 195.133 163.604H294.923C296.594 163.603 298.249 163.271 299.792 162.628C301.335 161.984 302.735 161.042 303.912 159.855C305.089 158.668 306.02 157.26 306.65 155.712C307.281 154.165 307.599 152.507 307.586 150.836C307.504 147.454 306.095 144.241 303.664 141.89C301.232 139.538 297.974 138.237 294.591 138.268H195.168C194.966 138.268 194.774 138.348 194.631 138.49C194.489 138.633 194.409 138.826 194.409 139.027V139.847C194.408 139.947 194.427 140.047 194.464 140.14C194.502 140.233 194.558 140.317 194.628 140.389C194.699 140.46 194.783 140.517 194.875 140.556C194.968 140.594 195.067 140.614 195.168 140.614H294.051C296.821 140.609 299.484 141.686 301.47 143.617C303.457 145.548 304.609 148.18 304.682 150.949Z" fill="#263238"/>
<path d="M293.859 148.045V157.194L290.544 153.888L287.335 157.098V148.045H293.859Z" fill="#263238"/>
<path d="M298.166 189.951H156.365V212.775H298.166V189.951Z" fill="#407BFF"/>
<path opacity="0.7" d="M298.166 189.951H156.365V212.775H298.166V189.951Z" fill="white"/>
<path opacity="0.2" d="M298.175 195.986V194.129L201.08 194.905L298.175 195.986Z" fill="black"/>
<path opacity="0.2" d="M298.175 203.984V202.553L254.586 204.106L298.175 203.984Z" fill="black"/>
<path opacity="0.2" d="M298.175 209.33V207.481L227.898 208.554L298.175 209.33Z" fill="black"/>
<path opacity="0.2" d="M188.059 189.951L186.019 207.001L188.443 204.385C189.261 207.491 190.786 210.365 192.9 212.783C194.419 210.794 195.627 208.586 196.484 206.234L262.706 205.475L197.103 204.045C197.312 203.12 197.42 202.176 197.426 201.228C197.423 200.428 197.344 199.631 197.191 198.847L294.373 198.603L196.964 197.844C196.627 196.562 196.147 195.321 195.534 194.146C196.926 192.891 198.734 192.195 200.609 192.192H298.176V189.96L188.059 189.951Z" fill="black"/>
<path d="M190.256 201.228C190.261 203.966 191.352 206.59 193.29 208.524C195.227 210.459 197.853 211.545 200.591 211.545H299.806C299.906 211.544 300.006 211.563 300.099 211.6C300.192 211.638 300.277 211.694 300.348 211.764C300.419 211.835 300.476 211.919 300.515 212.011C300.553 212.104 300.573 212.203 300.573 212.304V213.106C300.573 213.207 300.553 213.306 300.515 213.399C300.476 213.491 300.419 213.575 300.348 213.646C300.277 213.716 300.192 213.772 300.099 213.81C300.006 213.847 299.906 213.866 299.806 213.865H145.437C143.766 213.866 142.111 213.536 140.568 212.894C139.024 212.252 137.624 211.311 136.446 210.125C135.269 208.938 134.338 207.531 133.708 205.983C133.077 204.435 132.76 202.777 132.774 201.106C132.856 197.723 134.265 194.509 136.696 192.156C139.127 189.804 142.386 188.501 145.769 188.529H299.806C299.906 188.528 300.006 188.547 300.099 188.585C300.192 188.622 300.277 188.678 300.348 188.749C300.419 188.819 300.476 188.903 300.515 188.996C300.553 189.088 300.573 189.188 300.573 189.288V190.108C300.573 190.208 300.553 190.308 300.515 190.4C300.476 190.493 300.419 190.577 300.348 190.648C300.277 190.718 300.192 190.774 300.099 190.811C300.006 190.849 299.906 190.868 299.806 190.867H200.897C198.122 190.864 195.456 191.945 193.467 193.881C191.479 195.817 190.327 198.454 190.256 201.228Z" fill="#407BFF"/>
<path opacity="0.4" d="M190.256 201.228C190.261 203.966 191.352 206.59 193.29 208.524C195.227 210.459 197.853 211.545 200.591 211.545H299.806C299.906 211.544 300.006 211.563 300.099 211.6C300.192 211.638 300.277 211.694 300.348 211.764C300.419 211.835 300.476 211.919 300.515 212.011C300.553 212.104 300.573 212.203 300.573 212.304V213.106C300.573 213.207 300.553 213.306 300.515 213.399C300.476 213.491 300.419 213.575 300.348 213.646C300.277 213.716 300.192 213.772 300.099 213.81C300.006 213.847 299.906 213.866 299.806 213.865H145.437C143.766 213.866 142.111 213.536 140.568 212.894C139.024 212.252 137.624 211.311 136.446 210.125C135.269 208.938 134.338 207.531 133.708 205.983C133.077 204.435 132.76 202.777 132.774 201.106C132.856 197.723 134.265 194.509 136.696 192.156C139.127 189.804 142.386 188.501 145.769 188.529H299.806C299.906 188.528 300.006 188.547 300.099 188.585C300.192 188.622 300.277 188.678 300.348 188.749C300.419 188.819 300.476 188.903 300.515 188.996C300.553 189.088 300.573 189.188 300.573 189.288V190.108C300.573 190.208 300.553 190.308 300.515 190.4C300.476 190.493 300.419 190.577 300.348 190.648C300.277 190.718 300.192 190.774 300.099 190.811C300.006 190.849 299.906 190.868 299.806 190.867H200.897C198.122 190.864 195.456 191.945 193.467 193.881C191.479 195.817 190.327 198.454 190.256 201.228Z" fill="black"/>
<path d="M190.257 201.228C190.262 203.966 191.353 206.59 193.29 208.524C195.228 210.459 197.854 211.545 200.592 211.545H299.806C299.907 211.544 300.006 211.563 300.099 211.6C300.192 211.638 300.277 211.694 300.348 211.764C300.42 211.835 300.477 211.919 300.515 212.011C300.554 212.104 300.574 212.203 300.574 212.304V213.106C300.574 213.207 300.554 213.306 300.515 213.399C300.477 213.491 300.42 213.575 300.348 213.646C300.277 213.716 300.192 213.772 300.099 213.81C300.006 213.847 299.907 213.866 299.806 213.865H200.025C198.354 213.865 196.699 213.534 195.155 212.892C193.612 212.25 192.211 211.309 191.033 210.123C189.856 208.937 188.924 207.529 188.292 205.982C187.661 204.434 187.341 202.777 187.353 201.106C187.435 197.723 188.844 194.509 191.275 192.156C193.706 189.804 196.965 188.501 200.348 188.529H299.771C299.872 188.528 299.971 188.547 300.064 188.585C300.158 188.622 300.242 188.678 300.314 188.749C300.385 188.819 300.442 188.903 300.48 188.996C300.519 189.088 300.539 189.188 300.539 189.288V190.108C300.539 190.208 300.519 190.308 300.48 190.4C300.442 190.493 300.385 190.577 300.314 190.648C300.242 190.718 300.158 190.774 300.064 190.811C299.971 190.849 299.872 190.868 299.771 190.867H200.897C198.122 190.864 195.456 191.945 193.468 193.881C191.48 195.817 190.328 198.454 190.257 201.228Z" fill="#407BFF"/>
<path d="M201.08 198.332V207.481L204.394 204.167L207.604 207.376V198.332H201.08Z" fill="#263238"/>
<path opacity="0.1" d="M190.257 201.228C190.262 203.966 191.353 206.59 193.29 208.524C195.228 210.459 197.854 211.545 200.592 211.545H299.806C299.907 211.544 300.006 211.563 300.099 211.6C300.192 211.638 300.277 211.694 300.348 211.764C300.42 211.835 300.477 211.919 300.515 212.011C300.554 212.104 300.574 212.203 300.574 212.304V213.106C300.574 213.207 300.554 213.306 300.515 213.399C300.477 213.491 300.42 213.575 300.348 213.646C300.277 213.716 300.192 213.772 300.099 213.81C300.006 213.847 299.907 213.866 299.806 213.865H200.025C198.354 213.865 196.699 213.534 195.155 212.892C193.612 212.25 192.211 211.309 191.033 210.123C189.856 208.937 188.924 207.529 188.292 205.982C187.661 204.434 187.341 202.777 187.353 201.106C187.435 197.723 188.844 194.509 191.275 192.156C193.706 189.804 196.965 188.501 200.348 188.529H299.771C299.872 188.528 299.971 188.547 300.064 188.585C300.158 188.622 300.242 188.678 300.314 188.749C300.385 188.819 300.442 188.903 300.48 188.996C300.519 189.088 300.539 189.188 300.539 189.288V190.108C300.539 190.208 300.519 190.308 300.48 190.4C300.442 190.493 300.385 190.577 300.314 190.648C300.242 190.718 300.158 190.774 300.064 190.811C299.971 190.849 299.872 190.868 299.771 190.867H200.897C198.122 190.864 195.456 191.945 193.468 193.881C191.48 195.817 190.328 198.454 190.257 201.228Z" fill="white"/>
<path opacity="0.1" d="M182.766 210.176C185.145 212.551 188.37 213.884 191.732 213.883H187.519C185.847 213.884 184.191 213.554 182.648 212.911C181.104 212.268 179.703 211.326 178.525 210.139C177.348 208.952 176.417 207.543 175.787 205.994C175.158 204.445 174.841 202.786 174.856 201.114C174.936 197.732 176.344 194.518 178.776 192.166C181.208 189.814 184.468 188.514 187.851 188.547H192.055C188.672 188.516 185.414 189.817 182.982 192.168C180.551 194.52 179.142 197.733 179.06 201.114C179.044 202.795 179.364 204.462 180.001 206.018C180.637 207.574 181.577 208.988 182.766 210.176Z" fill="white"/>
<path opacity="0.1" d="M174.349 210.176C176.729 212.549 179.954 213.882 183.315 213.882H179.102C177.43 213.884 175.774 213.553 174.231 212.911C172.687 212.268 171.286 211.326 170.108 210.139C168.931 208.952 168 207.543 167.37 205.994C166.741 204.445 166.424 202.786 166.439 201.114C166.521 197.733 167.93 194.52 170.362 192.168C172.793 189.817 176.052 188.516 179.434 188.547H183.638C180.251 188.509 176.985 189.807 174.548 192.159C172.111 194.511 170.699 197.728 170.617 201.114C170.604 202.797 170.928 204.465 171.569 206.021C172.21 207.577 173.155 208.99 174.349 210.176Z" fill="white"/>
<path d="M309.286 164.807H167.485V187.631H309.286V164.807Z" fill="#407BFF"/>
<path opacity="0.8" d="M309.286 164.807H167.485V187.631H309.286V164.807Z" fill="white"/>
<path opacity="0.2" d="M309.287 170.842V168.985L212.2 169.761L309.287 170.842Z" fill="black"/>
<path opacity="0.2" d="M309.287 178.84V177.41L265.697 178.971L309.287 178.84Z" fill="black"/>
<path opacity="0.2" d="M309.287 184.186V182.337L239.01 183.41L309.287 184.186Z" fill="black"/>
<path opacity="0.2" d="M199.188 164.807L197.13 181.823L199.554 179.206C200.379 182.311 201.907 185.185 204.02 187.605C205.533 185.616 206.738 183.411 207.596 181.064L273.817 180.296L208.215 178.866C208.61 177.162 208.642 175.394 208.311 173.677L305.484 173.433L208.119 172.691C207.772 171.412 207.293 170.173 206.689 168.994C208.08 167.736 209.889 167.04 211.764 167.04H309.287V164.807H199.188Z" fill="black"/>
<path d="M201.376 176.084C201.38 178.82 202.47 181.443 204.406 183.378C206.342 185.312 208.965 186.399 211.702 186.401H310.925C311.126 186.401 311.319 186.481 311.462 186.624C311.604 186.766 311.684 186.959 311.684 187.16V187.98C311.684 188.181 311.604 188.374 311.462 188.517C311.319 188.659 311.126 188.739 310.925 188.739H164.406C162.734 188.739 161.079 188.408 159.536 187.766C157.993 187.124 156.592 186.182 155.414 184.996C154.236 183.81 153.305 182.403 152.673 180.856C152.041 179.308 151.722 177.651 151.734 175.979C151.814 172.603 153.215 169.393 155.637 167.04C158.059 164.687 161.308 163.378 164.685 163.394H310.925C311.025 163.394 311.125 163.414 311.217 163.453C311.31 163.492 311.394 163.548 311.465 163.62C311.535 163.691 311.591 163.776 311.629 163.869C311.666 163.962 311.685 164.062 311.684 164.162V164.973C311.684 165.174 311.604 165.367 311.462 165.51C311.319 165.652 311.126 165.732 310.925 165.732H212.007C206.321 165.74 201.367 170.372 201.376 176.084Z" fill="#263238"/>
<path opacity="0.4" d="M201.376 176.084C201.38 178.82 202.47 181.443 204.406 183.378C206.342 185.312 208.965 186.399 211.702 186.401H310.925C311.126 186.401 311.319 186.481 311.462 186.624C311.604 186.766 311.684 186.959 311.684 187.16V187.98C311.684 188.181 311.604 188.374 311.462 188.517C311.319 188.659 311.126 188.739 310.925 188.739H164.406C162.734 188.739 161.079 188.408 159.536 187.766C157.993 187.124 156.592 186.182 155.414 184.996C154.236 183.81 153.305 182.403 152.673 180.856C152.041 179.308 151.722 177.651 151.734 175.979C151.814 172.603 153.215 169.393 155.637 167.04C158.059 164.687 161.308 163.378 164.685 163.394H310.925C311.025 163.394 311.125 163.414 311.217 163.453C311.31 163.492 311.394 163.548 311.465 163.62C311.535 163.691 311.591 163.776 311.629 163.869C311.666 163.962 311.685 164.062 311.684 164.162V164.973C311.684 165.174 311.604 165.367 311.462 165.51C311.319 165.652 311.126 165.732 310.925 165.732H212.007C206.321 165.74 201.367 170.372 201.376 176.084Z" fill="white"/>
<path d="M201.377 176.084C201.382 178.821 202.471 181.443 204.407 183.378C206.343 185.312 208.967 186.399 211.703 186.401H310.926C311.128 186.401 311.321 186.481 311.463 186.624C311.605 186.766 311.685 186.959 311.685 187.16V187.98C311.685 188.181 311.605 188.374 311.463 188.517C311.321 188.659 311.128 188.739 310.926 188.739H211.136C209.465 188.739 207.81 188.408 206.267 187.766C204.724 187.124 203.323 186.182 202.145 184.996C200.967 183.81 200.035 182.403 199.404 180.856C198.772 179.308 198.453 177.651 198.464 175.979C198.544 172.596 199.952 169.379 202.383 167.025C204.815 164.67 208.074 163.366 211.459 163.394H310.926C311.027 163.394 311.126 163.414 311.219 163.453C311.311 163.492 311.395 163.548 311.466 163.62C311.537 163.691 311.592 163.776 311.63 163.869C311.668 163.962 311.686 164.062 311.685 164.162V164.973C311.685 165.174 311.605 165.367 311.463 165.51C311.321 165.652 311.128 165.732 310.926 165.732H212.008C206.322 165.741 201.368 170.372 201.377 176.084Z" fill="#263238"/>
<path d="M220.058 169.935V179.093L223.372 175.779L226.581 178.988V169.935H220.058Z" fill="#407BFF"/>
<path opacity="0.6" d="M201.377 176.084C201.382 178.821 202.471 181.443 204.407 183.378C206.343 185.312 208.967 186.399 211.703 186.401H310.926C311.128 186.401 311.321 186.481 311.463 186.624C311.605 186.766 311.685 186.959 311.685 187.16V187.98C311.685 188.181 311.605 188.374 311.463 188.517C311.321 188.659 311.128 188.739 310.926 188.739H211.136C209.465 188.739 207.81 188.408 206.267 187.766C204.724 187.124 203.323 186.182 202.145 184.996C200.967 183.81 200.035 182.403 199.404 180.856C198.772 179.308 198.453 177.651 198.464 175.979C198.544 172.596 199.952 169.379 202.383 167.025C204.815 164.67 208.074 163.366 211.459 163.394H310.926C311.027 163.394 311.126 163.414 311.219 163.453C311.311 163.492 311.395 163.548 311.466 163.62C311.537 163.691 311.592 163.776 311.63 163.869C311.668 163.962 311.686 164.062 311.685 164.162V164.973C311.685 165.174 311.605 165.367 311.463 165.51C311.321 165.652 311.128 165.732 310.926 165.732H212.008C206.322 165.741 201.368 170.372 201.377 176.084Z" fill="white"/>
<path opacity="0.2" d="M193.867 170.119H161.485C160.661 170.815 159.998 171.683 159.543 172.662C159.089 173.642 158.854 174.708 158.854 175.787C158.854 176.867 159.089 177.933 159.543 178.912C159.998 179.891 160.661 180.76 161.485 181.456H193.867C191.774 178.596 191.774 172.988 193.867 170.119Z" fill="black"/>
<path d="M296.605 89.3849H244.067V112.174H296.605V89.3849Z" fill="#407BFF"/>
<path opacity="0.7" d="M296.605 89.3849H244.067V112.174H296.605V89.3849Z" fill="white"/>
<path opacity="0.2" d="M248.28 91.6176H296.605V89.3849H248.333L248.28 91.6176Z" fill="black"/>
<path opacity="0.2" d="M248.28 93.5624L291.878 94.4868L248.28 95.42V93.5624Z" fill="black"/>
<path opacity="0.2" d="M248.28 101.987L294.451 102.763L248.28 103.418V101.987Z" fill="black"/>
<path opacity="0.2" d="M248.28 106.915L294.033 107.839L248.28 108.764V106.915Z" fill="black"/>
<path opacity="0.2" d="M296.607 96.8066L252.346 98.141L296.607 99.0655V96.8066Z" fill="black"/>
<path d="M179.338 100.662C179.343 103.398 180.432 106.021 182.368 107.955C184.304 109.889 186.928 110.977 189.664 110.979H299.03C299.231 110.979 299.424 111.059 299.567 111.201C299.709 111.343 299.789 111.536 299.789 111.738V112.558C299.789 112.759 299.709 112.952 299.567 113.094C299.424 113.236 299.231 113.316 299.03 113.316H189.141C187.47 113.322 185.815 112.997 184.271 112.36C182.726 111.723 181.323 110.786 180.143 109.604C178.962 108.422 178.027 107.017 177.392 105.472C176.757 103.927 176.434 102.271 176.443 100.601C176.523 97.2191 177.929 94.0049 180.359 91.6519C182.789 89.2988 186.046 87.9958 189.429 88.0243H299.03C299.231 88.0243 299.424 88.1042 299.567 88.2465C299.709 88.3888 299.789 88.5818 299.789 88.783V89.6029C299.789 89.8041 299.709 89.9971 299.567 90.1394C299.424 90.2817 299.231 90.3616 299.03 90.3616H190.013C184.292 90.318 179.338 94.9752 179.338 100.662Z" fill="#407BFF"/>
<path opacity="0.4" d="M179.338 100.662C179.343 103.398 180.432 106.021 182.368 107.955C184.304 109.889 186.928 110.977 189.664 110.979H299.03C299.231 110.979 299.424 111.059 299.567 111.201C299.709 111.343 299.789 111.536 299.789 111.738V112.558C299.789 112.759 299.709 112.952 299.567 113.094C299.424 113.236 299.231 113.316 299.03 113.316H189.141C187.47 113.322 185.815 112.997 184.271 112.36C182.726 111.723 181.323 110.786 180.143 109.604C178.962 108.422 178.027 107.017 177.392 105.472C176.757 103.927 176.434 102.271 176.443 100.601C176.523 97.2191 177.929 94.0049 180.359 91.6519C182.789 89.2988 186.046 87.9958 189.429 88.0243H299.03C299.231 88.0243 299.424 88.1042 299.567 88.2465C299.709 88.3888 299.789 88.5818 299.789 88.783V89.6029C299.789 89.8041 299.709 89.9971 299.567 90.1394C299.424 90.2817 299.231 90.3616 299.03 90.3616H190.013C184.292 90.318 179.338 94.9752 179.338 100.662Z" fill="white"/>
<path d="M139.464 100.801C139.466 103.827 140.67 106.729 142.811 108.868C144.951 111.007 147.854 112.209 150.88 112.209H248.28V89.3849H150.88C147.852 89.3849 144.949 90.5877 142.808 92.7286C140.667 94.8696 139.464 97.7734 139.464 100.801Z" fill="#407BFF"/>
<path opacity="0.5" d="M248.28 89.3849V112.209H150.871C147.899 112.127 145.077 110.888 143.003 108.757C140.93 106.626 139.771 103.77 139.771 100.797C139.771 97.8237 140.93 94.9678 143.003 92.8366C145.077 90.7054 147.899 89.4671 150.871 89.3849H248.28Z" fill="white"/>
<path opacity="0.2" d="M248.281 95.42V93.5624L151.186 94.3386L248.281 95.42Z" fill="black"/>
<path opacity="0.2" d="M248.281 103.418V101.987L204.691 103.548L248.281 103.418Z" fill="black"/>
<path opacity="0.2" d="M248.28 108.764V106.915L178.003 107.988L248.28 108.764Z" fill="black"/>
<path opacity="0.2" d="M150.714 91.6176C148.841 91.6225 147.035 92.3145 145.639 93.5624C146.25 94.7428 146.732 95.9854 147.078 97.269L244.478 98.0278L147.304 98.2719C147.453 99.057 147.532 99.8538 147.54 100.653C147.532 101.598 147.42 102.54 147.208 103.461L212.811 104.9L146.589 105.668C146.024 107.252 145.287 108.77 144.391 110.194C142.389 108.811 140.882 106.824 140.088 104.524C139.294 102.224 139.257 99.7302 139.98 97.4069C140.704 95.0836 142.15 93.0523 144.11 91.6092C146.069 90.1661 148.438 89.3868 150.871 89.3849H248.28V91.6176H150.714Z" fill="black"/>
<path d="M140.37 100.662C140.37 102.017 140.637 103.36 141.156 104.612C141.675 105.864 142.436 107.002 143.395 107.96C144.354 108.918 145.493 109.678 146.745 110.196C147.998 110.714 149.341 110.98 150.696 110.979H249.919C250.121 110.979 250.314 111.059 250.456 111.201C250.598 111.343 250.678 111.536 250.678 111.738V112.558C250.678 112.759 250.598 112.952 250.456 113.094C250.314 113.236 250.121 113.316 249.919 113.316H150.129C148.463 113.314 146.814 112.983 145.275 112.343C143.737 111.702 142.34 110.764 141.165 109.583C139.989 108.402 139.058 107.001 138.425 105.459C137.792 103.918 137.469 102.267 137.475 100.601C137.557 97.2183 138.966 94.0041 141.397 91.6513C143.828 89.2985 147.086 87.9958 150.47 88.0243H249.919C250.121 88.0243 250.314 88.1042 250.456 88.2465C250.598 88.3888 250.678 88.5818 250.678 88.783V89.6029C250.678 89.8041 250.598 89.9971 250.456 90.1394C250.314 90.2817 250.121 90.3616 249.919 90.3616H151.002C148.237 90.3559 145.579 91.4289 143.594 93.3525C141.609 95.276 140.452 97.8983 140.37 100.662Z" fill="#407BFF"/>
<path d="M151.186 97.766V106.915L154.5 103.601L157.709 106.81V97.766H151.186Z" fill="#263238"/>
<path d="M321.558 114.529H179.757V137.352H321.558V114.529Z" fill="#407BFF"/>
<path opacity="0.7" d="M321.558 114.529H179.757V137.352H321.558V114.529Z" fill="white"/>
<path opacity="0.2" d="M321.557 120.555V118.697L224.471 119.482L321.557 120.555Z" fill="black"/>
<path opacity="0.2" d="M321.557 128.561V127.131L277.977 128.683L321.557 128.561Z" fill="black"/>
<path opacity="0.2" d="M321.557 133.907V132.058L251.289 133.131L321.557 133.907Z" fill="black"/>
<path opacity="0.2" d="M211.459 114.555L209.4 131.57L211.825 128.954C212.649 132.059 214.177 134.933 216.29 137.353C217.802 135.36 219.007 133.152 219.866 130.803L286.096 130.044L220.494 128.614C220.698 127.685 220.806 126.738 220.817 125.788C220.81 124.992 220.731 124.198 220.581 123.416L317.755 123.172L220.328 122.404C219.982 121.122 219.502 119.88 218.898 118.697C220.292 117.445 222.1 116.752 223.974 116.753H321.557V114.555H211.459Z" fill="black"/>
<path d="M213.646 125.805C213.651 128.542 214.741 131.165 216.676 133.099C218.612 135.033 221.236 136.12 223.973 136.123H323.239C323.339 136.123 323.438 136.142 323.53 136.18C323.622 136.219 323.705 136.274 323.776 136.345C323.846 136.415 323.902 136.499 323.94 136.591C323.978 136.683 323.998 136.782 323.998 136.881V137.701C323.998 137.801 323.978 137.9 323.94 137.992C323.902 138.084 323.846 138.167 323.776 138.238C323.705 138.308 323.622 138.364 323.53 138.402C323.438 138.44 323.339 138.46 323.239 138.46H168.871C167.199 138.459 165.545 138.127 164.002 137.484C162.459 136.84 161.059 135.898 159.882 134.711C158.705 133.525 157.774 132.117 157.144 130.569C156.513 129.021 156.195 127.363 156.207 125.692C156.285 122.311 157.692 119.096 160.122 116.744C162.552 114.392 165.811 113.091 169.194 113.124H323.239C323.339 113.124 323.438 113.144 323.53 113.182C323.622 113.22 323.705 113.276 323.776 113.347C323.846 113.417 323.902 113.501 323.94 113.593C323.978 113.685 323.998 113.784 323.998 113.883V114.703C323.998 114.803 323.978 114.901 323.94 114.993C323.902 115.085 323.846 115.169 323.776 115.24C323.705 115.31 323.622 115.366 323.53 115.404C323.438 115.442 323.339 115.462 323.239 115.462H224.278C221.506 115.456 218.842 116.535 216.855 118.468C214.869 120.401 213.717 123.034 213.646 125.805Z" fill="#263238"/>
<path opacity="0.2" d="M213.646 125.805C213.651 128.542 214.741 131.165 216.676 133.099C218.612 135.033 221.236 136.12 223.973 136.123H323.239C323.339 136.123 323.438 136.142 323.53 136.18C323.622 136.219 323.705 136.274 323.776 136.345C323.846 136.415 323.902 136.499 323.94 136.591C323.978 136.683 323.998 136.782 323.998 136.881V137.701C323.998 137.801 323.978 137.9 323.94 137.992C323.902 138.084 323.846 138.167 323.776 138.238C323.705 138.308 323.622 138.364 323.53 138.402C323.438 138.44 323.339 138.46 323.239 138.46H168.871C167.199 138.459 165.545 138.127 164.002 137.484C162.459 136.84 161.059 135.898 159.882 134.711C158.705 133.525 157.774 132.117 157.144 130.569C156.513 129.021 156.195 127.363 156.207 125.692C156.285 122.311 157.692 119.096 160.122 116.744C162.552 114.392 165.811 113.091 169.194 113.124H323.239C323.339 113.124 323.438 113.144 323.53 113.182C323.622 113.22 323.705 113.276 323.776 113.347C323.846 113.417 323.902 113.501 323.94 113.593C323.978 113.685 323.998 113.784 323.998 113.883V114.703C323.998 114.803 323.978 114.901 323.94 114.993C323.902 115.085 323.846 115.169 323.776 115.24C323.705 115.31 323.622 115.366 323.53 115.404C323.438 115.442 323.339 115.462 323.239 115.462H224.278C221.506 115.456 218.842 116.535 216.855 118.468C214.869 120.401 213.717 123.034 213.646 125.805Z" fill="white"/>
<path d="M213.649 125.805C213.653 128.542 214.743 131.165 216.679 133.099C218.614 135.033 221.238 136.12 223.975 136.123H323.241C323.341 136.123 323.44 136.142 323.532 136.18C323.624 136.219 323.708 136.274 323.778 136.345C323.848 136.415 323.904 136.499 323.942 136.591C323.981 136.683 324 136.782 324 136.881V137.701C324 137.801 323.981 137.9 323.942 137.992C323.904 138.084 323.848 138.167 323.778 138.238C323.708 138.308 323.624 138.364 323.532 138.402C323.44 138.44 323.341 138.46 323.241 138.46H223.408C221.736 138.46 220.08 138.129 218.536 137.486C216.992 136.844 215.591 135.902 214.413 134.715C213.235 133.528 212.304 132.119 211.673 130.571C211.041 129.022 210.723 127.364 210.736 125.692C210.816 122.311 212.223 119.098 214.653 116.746C217.083 114.395 220.34 113.094 223.722 113.124H323.241C323.341 113.124 323.44 113.144 323.532 113.182C323.624 113.22 323.708 113.276 323.778 113.347C323.848 113.417 323.904 113.501 323.942 113.593C323.981 113.685 324 113.784 324 113.883V114.703C324 114.803 323.981 114.901 323.942 114.993C323.904 115.085 323.848 115.169 323.778 115.24C323.708 115.31 323.624 115.366 323.532 115.404C323.44 115.442 323.341 115.462 323.241 115.462H224.28C221.508 115.456 218.844 116.535 216.858 118.468C214.871 120.401 213.719 123.034 213.649 125.805Z" fill="#263238"/>
<path d="M224.471 122.91V132.059L227.785 128.744L230.994 131.954V122.91H224.471Z" fill="#407BFF"/>
<path opacity="0.4" d="M213.649 125.805C213.653 128.542 214.743 131.165 216.679 133.099C218.614 135.033 221.238 136.12 223.975 136.123H323.241C323.341 136.123 323.44 136.142 323.532 136.18C323.624 136.219 323.708 136.274 323.778 136.345C323.848 136.415 323.904 136.499 323.942 136.591C323.981 136.683 324 136.782 324 136.881V137.701C324 137.801 323.981 137.9 323.942 137.992C323.904 138.084 323.848 138.167 323.778 138.238C323.708 138.308 323.624 138.364 323.532 138.402C323.44 138.44 323.341 138.46 323.241 138.46H223.408C221.736 138.46 220.08 138.129 218.536 137.486C216.992 136.844 215.591 135.902 214.413 134.715C213.235 133.528 212.304 132.119 211.673 130.571C211.041 129.022 210.723 127.364 210.736 125.692C210.816 122.311 212.223 119.098 214.653 116.746C217.083 114.395 220.34 113.094 223.722 113.124H323.241C323.341 113.124 323.44 113.144 323.532 113.182C323.624 113.22 323.708 113.276 323.778 113.347C323.848 113.417 323.904 113.501 323.942 113.593C323.981 113.685 324 113.784 324 113.883V114.703C324 114.803 323.981 114.901 323.942 114.993C323.904 115.085 323.848 115.169 323.778 115.24C323.708 115.31 323.624 115.366 323.532 115.404C323.44 115.442 323.341 115.462 323.241 115.462H224.28C221.508 115.456 218.844 116.535 216.858 118.468C214.871 120.401 213.719 123.034 213.649 125.805Z" fill="white"/>
<path opacity="0.2" d="M176.721 134.745C177.897 135.924 179.294 136.859 180.833 137.497C182.372 138.134 184.021 138.462 185.686 138.46H177.27C175.599 138.459 173.944 138.127 172.401 137.484C170.859 136.84 169.458 135.898 168.281 134.711C167.104 133.525 166.174 132.117 165.543 130.569C164.912 129.021 164.594 127.363 164.607 125.692C164.685 122.311 166.091 119.096 168.521 116.744C170.952 114.392 174.211 113.091 177.593 113.124H186C182.619 113.094 179.361 114.395 176.931 116.746C174.501 119.098 173.094 122.311 173.014 125.692C172.998 127.372 173.318 129.038 173.955 130.592C174.591 132.147 175.532 133.558 176.721 134.745Z" fill="white"/>
<path d="M52.9652 39.9083H70.0417C71.4295 39.9083 72.7605 40.4596 73.7419 41.441C74.7232 42.4223 75.2745 43.7533 75.2745 45.1412V59.9675C75.2745 61.3553 74.7232 62.6863 73.7419 63.6677C72.7605 64.649 71.4295 65.2003 70.0417 65.2003H69.2655L70.0766 69.2558L65.7159 65.2003H52.9652C51.5774 65.2003 50.2464 64.649 49.2651 63.6677C48.2837 62.6863 47.7324 61.3553 47.7324 59.9675V45.1412C47.7324 43.7533 48.2837 42.4223 49.2651 41.441C50.2464 40.4596 51.5774 39.9083 52.9652 39.9083Z" fill="#407BFF"/>
<path d="M69.9798 52.5369C69.9798 54.2135 69.4826 55.8525 68.5511 57.2465C67.6196 58.6406 66.2957 59.7271 64.7466 60.3688C63.1976 61.0104 61.4932 61.1783 59.8488 60.8512C58.2044 60.5241 56.6939 59.7167 55.5083 58.5311C54.3227 57.3456 53.5154 55.8351 53.1883 54.1907C52.8612 52.5463 53.0291 50.8418 53.6707 49.2928C54.3123 47.7438 55.3988 46.4198 56.7929 45.4884C58.187 44.5569 59.8259 44.0597 61.5026 44.0597C63.7509 44.0597 65.9071 44.9528 67.4968 46.5426C69.0866 48.1324 69.9798 50.2886 69.9798 52.5369Z" fill="white"/>
<path d="M60.6131 56.322C60.5009 56.3204 60.3903 56.2955 60.2882 56.249C60.1861 56.2024 60.0948 56.1352 60.02 56.0516L56.6884 52.127C56.5554 51.9685 56.4908 51.7637 56.5088 51.5577C56.5268 51.3516 56.6259 51.1611 56.7844 51.0281C56.9428 50.8951 57.1476 50.8305 57.3537 50.8485C57.5598 50.8665 57.7503 50.9656 57.8833 51.124L60.6131 54.3422L65.122 49.0222C65.257 48.8661 65.4479 48.7695 65.6536 48.7532C65.8592 48.7369 66.063 48.8022 66.2209 48.935C66.2992 49.0011 66.3635 49.0821 66.4103 49.1733C66.4571 49.2645 66.4854 49.3641 66.4935 49.4662C66.5016 49.5684 66.4894 49.6712 66.4576 49.7686C66.4257 49.866 66.3749 49.9562 66.3081 50.0339L61.2061 56.0516C61.1313 56.1352 61.04 56.2024 60.9379 56.249C60.8359 56.2955 60.7252 56.3204 60.6131 56.322Z" fill="#407BFF"/>
<path d="M153.46 139.602H119.133C115.742 139.602 112.993 142.351 112.993 145.742V203.007C112.993 206.398 115.742 209.147 119.133 209.147H153.46C156.851 209.147 159.6 206.398 159.6 203.007V145.742C159.6 142.351 156.851 139.602 153.46 139.602Z" fill="#407BFF"/>
<path opacity="0.5" d="M153.46 139.602H119.133C115.742 139.602 112.993 142.351 112.993 145.742V203.007C112.993 206.398 115.742 209.147 119.133 209.147H153.46C156.851 209.147 159.6 206.398 159.6 203.007V145.742C159.6 142.351 156.851 139.602 153.46 139.602Z" fill="white"/>
<path opacity="0.1" d="M150.042 209.147H118.906C118.129 209.147 117.359 208.993 116.641 208.696C115.923 208.398 115.271 207.962 114.722 207.412C114.173 206.862 113.737 206.209 113.441 205.49C113.144 204.772 112.992 204.002 112.993 203.225V145.516C112.992 144.739 113.144 143.969 113.441 143.251C113.738 142.533 114.173 141.881 114.723 141.332C115.272 140.782 115.924 140.347 116.642 140.05C117.36 139.753 118.129 139.601 118.906 139.602H150.042C148.473 139.602 146.969 140.225 145.86 141.334C144.751 142.443 144.129 143.947 144.129 145.516V203.225C144.129 204.794 144.751 206.299 145.86 207.409C146.969 208.519 148.473 209.144 150.042 209.147Z" fill="black"/>
<path d="M52.8588 213.882H152.448V207.341H52.8588V213.882Z" fill="#263238"/>
<path opacity="0.2" d="M52.8588 213.882H152.448V207.341H52.8588V213.882Z" fill="white"/>
<path opacity="0.2" d="M95.986 213.882H152.448V207.341H95.986V213.882Z" fill="white"/>
<path d="M122.151 170.119H48.6555L37.4572 112.278C37.1676 110.794 37.2102 109.263 37.582 107.797C37.9538 106.331 38.6456 104.965 39.6077 103.798C40.5698 102.631 41.7784 101.691 43.1467 101.046C44.515 100.401 46.0091 100.068 47.5217 100.068H100.138C102.519 100.068 104.825 100.896 106.662 102.411C108.499 103.926 109.75 106.034 110.202 108.371L122.151 170.119Z" fill="#407BFF"/>
<path opacity="0.6" d="M122.151 170.119H48.6555L37.4572 112.278C37.1676 110.794 37.2102 109.263 37.582 107.797C37.9538 106.331 38.6456 104.965 39.6077 103.798C40.5698 102.631 41.7784 101.691 43.1467 101.046C44.515 100.401 46.0091 100.068 47.5217 100.068H100.138C102.519 100.068 104.825 100.896 106.662 102.411C108.499 103.926 109.75 106.034 110.202 108.371L122.151 170.119Z" fill="white"/>
<path opacity="0.1" d="M69.5345 170.119H48.6555L37.4572 112.278C37.1676 110.794 37.2102 109.263 37.582 107.797C37.9538 106.331 38.6456 104.965 39.6077 103.798C40.5698 102.631 41.7784 101.691 43.1467 101.046C44.515 100.401 46.0091 100.068 47.5217 100.068C49.9011 100.07 52.2059 100.899 54.0406 102.414C55.8754 103.929 57.1259 106.035 57.5774 108.371L69.5345 170.119Z" fill="black"/>
<path d="M155.153 169.412H51.0371C48.1856 169.412 45.874 171.724 45.874 174.575V203.984C45.874 206.835 48.1856 209.147 51.0371 209.147H155.153C158.004 209.147 160.316 206.835 160.316 203.984V174.575C160.316 171.724 158.004 169.412 155.153 169.412Z" fill="#407BFF"/>
<path opacity="0.6" d="M155.153 169.412H51.0371C48.1856 169.412 45.874 171.724 45.874 174.575V203.984C45.874 206.835 48.1856 209.147 51.0371 209.147H155.153C158.004 209.147 160.316 206.835 160.316 203.984V174.575C160.316 171.724 158.004 169.412 155.153 169.412Z" fill="white"/>
<path opacity="0.1" d="M95.5946 169.412H51.0371C48.1856 169.412 45.874 171.724 45.874 174.575V203.984C45.874 206.835 48.1856 209.147 51.0371 209.147H95.5946C98.4461 209.147 100.758 206.835 100.758 203.984V174.575C100.758 171.724 98.4461 169.412 95.5946 169.412Z" fill="black"/>
<path d="M106.636 88.7219C114.18 90.5359 119.09 97.8968 125.387 100.975C125.466 101.045 125.317 101.15 125.387 101.228L122.466 103.609C122.006 104.263 121.745 105.035 121.715 105.833C121.715 106.278 121.82 106.391 121.855 106.33C121.88 105.833 121.787 105.337 121.585 104.883C120.468 101.682 118.305 98.0974 116.465 94.9838C115.401 93.1872 114.241 91.3558 113.203 89.5679C112.739 88.7672 112.561 87.8328 112.696 86.9174C112.832 86.002 113.274 85.1597 113.95 84.528C114.627 83.8963 115.497 83.5126 116.42 83.4395C117.342 83.3665 118.262 83.6083 119.029 84.1257C120.885 85.3891 122.664 86.7607 124.358 88.2335C129.521 92.943 136.219 99.2748 136.053 107.002C136.053 109.549 134.257 113.499 131.37 114.555C120.852 119.674 110.901 110.508 103.366 104.9C103.069 104.699 102.816 104.551 102.685 104.473C102.555 104.394 102.546 104.394 102.851 104.473C92.525 101.534 96.1269 86.6288 106.662 88.7742L106.636 88.7219Z" fill="#263238"/>
<path opacity="0.2" d="M120.119 109.322C119.142 109.235 118.226 109.104 117.319 108.947C116.412 108.79 115.348 108.589 114.389 108.38C113.429 108.171 112.522 107.918 111.607 107.673C109.775 107.185 108.005 106.583 106.261 105.929L106.104 105.868C107.003 104.065 108.43 102.578 110.194 101.603C110.194 101.603 115.54 103.287 120.119 109.322Z" fill="black"/>
<path d="M153.783 196.71L164.458 197.495L164.127 210.115L155.214 209.478L153.783 196.71Z" fill="#E4897B"/>
<path opacity="0.2" d="M153.792 196.719L164.458 197.495L164.275 204.568L154.586 203.862L153.792 196.719Z" fill="black"/>
<path d="M153.94 213.882H156.269L156.897 212.94L158.118 213.891H172.151C172.236 212.787 172.029 211.68 171.549 210.682C171.549 210.682 167.345 210.307 165.732 208.213C165.672 208.134 165.592 208.073 165.499 208.037C165.407 208.002 165.306 207.993 165.208 208.013C163.813 208.309 158.231 209.365 155.214 208.275C155.138 208.245 155.057 208.234 154.977 208.243C154.897 208.251 154.82 208.279 154.752 208.323C154.685 208.368 154.629 208.428 154.589 208.498C154.55 208.568 154.528 208.647 154.525 208.728C154.461 210.459 154.266 212.182 153.94 213.882Z" fill="#263238"/>
<path d="M95.3154 142.167C95.3154 142.167 79.4338 171.819 98.2719 171.819C121.985 171.819 144.565 165.845 144.565 165.845C144.565 165.845 143.274 178.491 152.414 202.475L165.226 202.37C165.226 202.37 170.215 150.836 160.656 142.193C152.964 135.216 125.648 137.457 125.648 137.457L95.3154 142.167Z" fill="#407BFF"/>
<path opacity="0.2" d="M147.382 182.939C147.216 183.567 147.059 184.178 146.894 184.779C143.902 172.29 144.565 165.81 144.565 165.81C144.565 165.81 121.985 171.784 98.272 171.784C86.8121 171.784 88.1988 160.83 91.0507 152.24C99.1267 147.112 107.621 142.463 113.726 139.297L125.648 137.44C125.648 137.44 130.559 137.03 136.812 137.1C146.056 141.225 154.917 152.597 147.382 182.939Z" fill="black"/>
<path d="M124.951 137.849C111.171 145.463 75.9891 143.344 69.7097 142.28C68.9335 131.901 67.9654 115.313 64.6949 103.034C64.3315 101.719 64.2398 100.344 64.4254 98.9932C64.611 97.642 65.0699 96.3429 65.7742 95.1749C66.4786 94.007 67.4135 92.9949 68.522 92.2003C69.6305 91.4057 70.8892 90.8454 72.2215 90.5534C81.9843 88.6388 91.9291 87.811 101.874 88.0853C105.363 88.2074 109.095 89.8993 110.212 93.2047C115.314 108.45 123.46 120.808 124.951 137.849Z" fill="#263238"/>
<path d="M93.2213 96.0478C87.439 96.3444 82.4155 91.4168 79.7119 89.7074C82.6336 87.6666 84.0726 84.0036 84.6133 81.9715C84.8662 81.0994 84.9709 80.4889 84.9709 80.4889L94.7912 84.8496C94.238 86.0863 94.1331 87.4772 94.4946 88.7829C95.7239 89.3299 96.6953 90.3294 97.207 91.5738C97.2035 91.6027 97.2035 91.632 97.207 91.661C97.9658 93.6669 98.9251 95.76 93.2213 96.0478Z" fill="#E4897B"/>
<path opacity="0.2" d="M97.2428 91.6697C91.3908 94.0855 85.6608 87.0212 84.6143 81.9715C84.8672 81.0994 84.9718 80.4889 84.9718 80.4889L94.7921 84.8496C94.2389 86.0863 94.1341 87.4772 94.4956 88.7829C95.7249 89.3299 96.6962 90.3294 97.2079 91.5738C97.215 91.6072 97.2268 91.6395 97.2428 91.6697Z" fill="black"/>
<path d="M93.5702 96.0304L91.3899 94.0856L88.0234 95.7688C88.0234 95.7688 89.8724 97.6526 93.5702 96.0304Z" fill="#407BFF"/>
<path opacity="0.5" d="M93.5702 96.0304L91.3899 94.0856L88.0234 95.7688C88.0234 95.7688 89.8724 97.6526 93.5702 96.0304Z" fill="white"/>
<path d="M81.107 88.2684C81.107 88.2684 85.2496 93.9286 91.3895 94.0856C90.2382 94.6867 89.221 95.5154 88.3995 96.5213C87.5779 97.5272 86.9692 98.6895 86.6102 99.9376C84.3934 99.1923 82.4453 97.8105 81.0091 95.9647C79.5728 94.119 78.7121 91.8911 78.5342 89.5592C78.8426 89.169 79.2328 88.8513 79.6773 88.6282C80.1218 88.4052 80.6099 88.2824 81.107 88.2684Z" fill="#407BFF"/>
<path d="M93.5713 96.0305L96.4842 93.5361L99.8158 94.4868C99.8158 94.4868 96.9552 97.4957 93.5713 96.0305Z" fill="#407BFF"/>
<path opacity="0.5" d="M93.5713 96.0305L96.4842 93.5361L99.8158 94.4868C99.8158 94.4868 96.9552 97.4957 93.5713 96.0305Z" fill="white"/>
<path d="M94.4961 88.7916C94.4961 88.7916 96.6067 91.5301 96.5194 93.536C99.319 94.2948 100.278 98.5072 100.278 98.5072C100.278 98.5072 101.421 92.4023 97.2259 89.2538C96.3866 88.8184 95.432 88.6568 94.4961 88.7916Z" fill="#407BFF"/>
<path opacity="0.8" d="M81.107 88.2684C81.107 88.2684 85.2496 93.9286 91.3895 94.0856C90.2382 94.6867 89.221 95.5154 88.3995 96.5213C87.5779 97.5272 86.9692 98.6895 86.6102 99.9376C84.3934 99.1923 82.4453 97.8105 81.0091 95.9647C79.5728 94.119 78.7121 91.8911 78.5342 89.5592C78.8426 89.169 79.2328 88.8513 79.6773 88.6282C80.1218 88.4052 80.6099 88.2824 81.107 88.2684Z" fill="white"/>
<path opacity="0.8" d="M94.4961 88.7916C94.4961 88.7916 96.6067 91.5301 96.5194 93.536C99.319 94.2948 100.278 98.5072 100.278 98.5072C100.278 98.5072 101.421 92.4023 97.2259 89.2538C96.3866 88.8184 95.432 88.6568 94.4961 88.7916Z" fill="white"/>
<path d="M133.341 197.722L143.981 196.623L145.865 209.103L136.978 210.036L133.341 197.722Z" fill="#E4897B"/>
<path opacity="0.2" d="M133.341 197.731L143.99 196.623L145.045 203.617L135.382 204.62L133.341 197.731Z" fill="black"/>
<path d="M135.434 213.883H137.753L138.39 212.941L139.611 213.891H153.644C153.728 212.786 153.518 211.679 153.033 210.682C153.033 210.682 148.838 210.307 147.216 208.214C147.158 208.135 147.079 208.074 146.988 208.038C146.897 208.003 146.798 207.994 146.702 208.013C145.306 208.31 139.725 209.365 136.698 208.275C136.623 208.245 136.543 208.234 136.463 208.242C136.383 208.251 136.306 208.279 136.239 208.323C136.172 208.368 136.117 208.428 136.079 208.498C136.04 208.569 136.019 208.648 136.018 208.728C135.955 210.459 135.759 212.182 135.434 213.883Z" fill="#263238"/>
<path d="M70.0752 142.167C70.0752 142.167 63.4382 164.057 81.2909 170.075C99.1435 176.093 116.778 165.461 116.778 165.461C116.778 165.461 116.778 170.075 132.686 203.958L145.864 201.472C145.864 201.472 141.215 150.757 135.398 142.167C129.581 133.576 100.382 137.431 100.382 137.431L70.0752 142.167Z" fill="#407BFF"/>
<path d="M116.953 82.992L114.023 86.4108C109.872 88.6784 107.874 82.835 107.874 82.835L104.787 79.3465C104.445 78.8947 104.276 78.3363 104.308 77.7708C104.339 77.2053 104.571 76.6696 104.961 76.2591L106.985 73.852C107.373 73.3332 107.948 72.9858 108.587 72.8833C109.227 72.7807 109.881 72.9311 110.412 73.3026L113.561 76.1283C114.186 76.6458 114.671 77.3114 114.974 78.0644L116.953 82.992Z" fill="#E4897B"/>
<path opacity="0.2" d="M94.6442 121.802C94.6442 121.802 86.5769 138.259 69.7097 142.28C69.0382 133.297 68.2794 118.811 65.9072 108.04C69.265 106.025 78.5358 103.854 78.5358 103.854C78.5687 107.885 79.4233 111.868 81.0475 115.558C85.5515 113.793 90.2656 112.62 95.0715 112.069C97.5309 111.755 94.6442 121.802 94.6442 121.802Z" fill="black"/>
<path d="M77.6722 104.787C78.1503 104.417 78.5655 103.972 78.9019 103.47C78.9978 103.313 78.9891 103.33 78.9717 103.4C78.9542 103.47 78.7973 103.888 78.6926 104.272C77.4367 109.427 76.6867 115.75 78.2042 120.843C78.335 121.218 78.3089 121.165 77.9687 121.061L80.2624 123.154C79.8942 122.663 79.439 122.243 78.9194 121.916C78.1868 121.331 76.2506 120.947 75.832 121.261C75.6227 121.427 76.207 121.357 76.7826 121.157C81.6317 119.369 86.6203 115.793 91.2252 113.168C92.0213 112.719 92.9443 112.549 93.8482 112.684C94.752 112.819 95.5851 113.251 96.2155 113.913C96.846 114.574 97.2379 115.427 97.3293 116.336C97.4206 117.245 97.2061 118.159 96.7197 118.933C92.2195 125.535 82.9225 137.204 73.7388 135.181C71.589 134.655 69.6894 133.397 68.3665 131.622L70.6602 133.716C66.221 131.23 64.0668 127.166 62.811 122.997C60.7541 115.312 60.8385 107.211 63.0552 99.5714C63.9273 96.9026 65.0436 94.1815 67.4682 92.2018C69.1393 90.919 71.2448 90.3383 73.3373 90.5832C75.4297 90.8281 77.3442 91.8793 78.674 93.5134C80.0037 95.1474 80.6439 97.2356 80.4584 99.3342C80.273 101.433 79.2766 103.376 77.6809 104.752L77.6722 104.787Z" fill="#263238"/>
<path d="M112.357 89.3585L110.612 87.4049C113.121 85.9749 115.407 84.1856 117.398 82.0936L120.537 82.9134C120.537 82.9134 117.703 88.9312 112.357 89.3585Z" fill="#407BFF"/>
<path opacity="0.5" d="M112.357 89.3585L110.612 87.4049C113.121 85.9749 115.407 84.1856 117.398 82.0936L120.537 82.9134C120.537 82.9134 117.703 88.9312 112.357 89.3585Z" fill="white"/>
<path opacity="0.9" d="M134.065 90.632L131.536 98.394L122.596 114.188C122.596 114.188 100.845 117.241 100.357 110.839C99.9122 105.101 101.395 95.7601 101.709 93.885L101.761 93.5449C113.927 94.731 121.681 99.2574 121.681 99.2574C125.457 93.196 134.065 90.632 134.065 90.632Z" fill="white"/>
<path opacity="0.1" d="M134.065 90.632L131.536 98.394L122.596 114.188C122.596 114.188 100.845 117.241 100.357 110.839C99.9122 105.101 101.395 95.7601 101.709 93.885C110.578 94.6961 121.689 100.077 121.689 100.077C122.902 96.2398 134.065 90.632 134.065 90.632Z" fill="black"/>
<path d="M131.308 116.299C131.308 116.299 127.279 118.174 120.433 123.538C120.041 123.851 119.59 124.082 119.107 124.218C118.464 124.412 117.781 124.433 117.127 124.279C111.261 122.872 105.305 121.876 99.3007 121.296C99.3007 121.296 98.5332 106.47 100.121 95.4461C100.121 95.4461 112.33 96.5014 121.68 100.095C121.95 99.8766 130.602 92.8733 136.105 91.9314C136.114 91.8791 129.189 106.182 131.308 116.299Z" fill="#407BFF"/>
<path opacity="0.1" d="M131.309 116.299C131.309 116.299 127.279 118.174 120.433 123.538C120.041 123.851 119.59 124.082 119.107 124.218C119.509 118.2 120.634 102.598 121.68 100.095C121.951 99.8766 130.602 92.8733 136.105 91.9314C136.114 91.8791 129.189 106.182 131.309 116.299Z" fill="black"/>
<path d="M120.904 99.7806C121.521 99.8572 122.144 99.6984 122.648 99.3358C122.648 99.3358 121.445 110.499 120.32 123.642C120.111 124.054 119.752 124.37 119.317 124.524C118.882 124.679 118.404 124.66 117.982 124.471C117.982 124.471 119.221 107.691 120.904 99.7806Z" fill="#407BFF"/>
<path opacity="0.2" d="M120.904 99.7806C121.521 99.8572 122.144 99.6984 122.648 99.3358C122.648 99.3358 121.445 110.499 120.32 123.642C120.111 124.054 119.752 124.37 119.317 124.524C118.882 124.679 118.404 124.66 117.982 124.471C117.982 124.471 119.221 107.691 120.904 99.7806Z" fill="white"/>
<path opacity="0.7" d="M124.515 102.772C124.515 102.772 128.614 99.2835 132.05 98.5073L131.518 100.644C128.751 101.777 126.223 103.426 124.07 105.502L124.515 102.772Z" fill="white"/>
<path opacity="0.1" d="M102.248 114.921C102.248 114.921 112.714 116.665 115.592 117.651V121.881C115.592 121.881 106.87 119.945 102.126 119.439L102.248 114.921Z" fill="black"/>
<path opacity="0.7" d="M126.615 99.0917L126.397 100.086C127.777 99.1679 129.236 98.3768 130.758 97.7224L131.142 96.4316C129.517 97.1044 127.994 97.9996 126.615 99.0917Z" fill="white"/>
<path d="M93.2227 113.107L94.0338 117.302C96.3885 121.131 100.784 117.25 100.784 117.25L103.645 116.238C104.137 116.026 104.538 115.648 104.777 115.169C105.017 114.69 105.079 114.142 104.953 113.622L104.412 110.682C104.34 110.071 104.031 109.512 103.552 109.126C103.072 108.74 102.461 108.556 101.848 108.615L99.2317 109.078C98.4721 109.217 97.7572 109.537 97.1473 110.011L93.2227 113.107Z" fill="#E4897B"/>
<path d="M91.9834 112.2L94.9313 111.79C94.8459 114.473 95.315 117.145 96.3092 119.639L94.3905 123.477C94.3905 123.477 89.5589 116.997 91.9834 112.2Z" fill="#407BFF"/>
<path opacity="0.5" d="M91.9834 112.2L94.9313 111.79C94.8459 114.473 95.315 117.145 96.3092 119.639L94.3905 123.477C94.3905 123.477 89.5589 116.997 91.9834 112.2Z" fill="white"/>
<path d="M105.781 76.3201L102.964 75.884C102.935 75.8809 102.908 75.8719 102.883 75.8578C102.858 75.8436 102.836 75.8245 102.819 75.8016C102.802 75.7787 102.79 75.7525 102.783 75.7247C102.776 75.6969 102.776 75.668 102.78 75.6398C102.785 75.611 102.795 75.5834 102.81 75.5585C102.825 75.5336 102.845 75.512 102.868 75.4949C102.892 75.4778 102.919 75.4657 102.947 75.4591C102.975 75.4525 103.005 75.4517 103.033 75.4567L105.842 75.8928C105.87 75.8959 105.898 75.9048 105.922 75.919C105.947 75.9332 105.969 75.9523 105.986 75.9752C106.003 75.9981 106.016 76.0242 106.022 76.0521C106.029 76.0799 106.03 76.1088 106.025 76.137C106.016 76.1934 105.986 76.2441 105.94 76.2784C105.894 76.3126 105.837 76.3276 105.781 76.3201Z" fill="#263238"/>
<path d="M106.025 72.3694C105.153 75.2649 103.051 77.9772 101.036 76.2242C100.641 75.8164 100.363 75.3093 100.233 74.7566C100.102 74.2038 100.124 73.6261 100.295 73.0846C100.888 70.0844 103.696 66.4999 103.696 66.4999C103.696 66.4999 105.667 65.5231 106.374 68.6454C106.556 69.8968 106.436 71.1737 106.025 72.3694Z" fill="#263238"/>
<path opacity="0.5" d="M106.025 72.3693C105.153 75.2648 103.051 77.9771 101.036 76.2241C100.641 75.8163 100.363 75.3091 100.233 74.7564C100.102 74.2037 100.124 73.6259 100.295 73.0844C101.281 72.3102 102.328 71.6161 103.426 71.0087C103.426 71.0087 104.673 70.529 106.025 72.3693Z" fill="white"/>
<path d="M99.9727 64.1974C93.7631 60.1769 85.8354 63.6044 84.8586 70.2152C83.8818 76.826 83.3672 81.3349 86.8209 85.0415C93.6846 92.3239 99.2837 89.8644 102.362 83.7246C105.083 78.1603 106.217 68.279 99.9727 64.1974Z" fill="#E4897B"/>
<path opacity="0.2" d="M94.5394 74.5672C93.818 74.0738 92.9319 73.8828 92.0713 74.0352C92.8514 74.372 93.6899 74.5527 94.5394 74.5672Z" fill="black"/>
<path opacity="0.2" d="M94.3739 75.1515C94.0095 74.9993 93.6163 74.9283 93.2218 74.9434C92.8272 74.9584 92.4406 75.0592 92.0889 75.2387C92.848 75.3737 93.6272 75.3439 94.3739 75.1515Z" fill="black"/>
<path d="M103.705 69.2035C101.961 71.6891 97.4866 67.4592 93.6841 65.8632C93.3781 65.7318 93.0461 65.6716 92.7134 65.6873C92.3807 65.7029 92.0559 65.794 91.7636 65.9536C91.4712 66.1132 91.219 66.3372 91.0259 66.6086C90.8328 66.88 90.704 67.1918 90.6491 67.5203C90.5931 67.8083 90.5931 68.1044 90.6491 68.3924C91.3032 71.1397 89.0531 72.5351 89.3496 74.1049C90.056 77.7505 87.1692 77.9162 83.7069 75.6486C83.201 75.3823 82.7762 74.9846 82.4771 74.4974C80.6893 73.3985 80.3055 71.1397 80.9073 68.3924C81.2721 66.8146 81.8103 65.282 82.512 63.8224C84.7447 59.0605 92.8381 58.3803 92.8381 58.3803C92.8381 58.3803 100.487 57.1244 103.208 61.6944C105.929 66.2644 103.705 69.2035 103.705 69.2035Z" fill="#263238"/>
<path d="M95.6123 75.0468C95.4815 75.6136 95.6821 76.1456 96.0571 76.2241C96.4321 76.3026 96.8333 75.9014 96.9292 75.352C97.0252 74.8025 96.8507 74.2531 96.4757 74.1746C96.1007 74.0961 95.7431 74.4799 95.6123 75.0468Z" fill="#263238"/>
<path d="M102.284 76.573C102.162 77.1399 102.362 77.6632 102.737 77.7417C103.112 77.8202 103.513 77.4277 103.609 76.8696C103.705 76.3114 103.54 75.7794 103.165 75.7009C102.79 75.6224 102.415 75.9974 102.284 76.573Z" fill="#263238"/>
<path d="M93.9896 73.0234C93.9304 73.0162 93.8736 72.9953 93.8239 72.9624C93.7524 72.907 93.7051 72.8261 93.6921 72.7366C93.6791 72.6471 93.7013 72.5561 93.7541 72.4827C94.0631 72.0334 94.4755 71.665 94.9567 71.4085C95.4378 71.1519 95.9736 71.0149 96.5188 71.0088C96.5639 71.0098 96.6083 71.0201 96.6493 71.0389C96.6903 71.0576 96.727 71.0846 96.7572 71.1181C96.7874 71.1515 96.8104 71.1908 96.8249 71.2335C96.8394 71.2762 96.8451 71.3214 96.8415 71.3664C96.8393 71.411 96.8282 71.4548 96.8091 71.4953C96.7899 71.5357 96.7629 71.5719 96.7297 71.6019C96.6965 71.6319 96.6577 71.655 96.6155 71.67C96.5733 71.6849 96.5286 71.6914 96.4839 71.6891C96.0522 71.7028 95.6297 71.8181 95.2509 72.0257C94.872 72.2333 94.5475 72.5273 94.3036 72.8839C94.269 72.9336 94.2214 72.9729 94.1661 72.9975C94.1107 73.0221 94.0497 73.0311 93.9896 73.0234Z" fill="#263238"/>
<path d="M105.275 74.9247C105.221 74.9063 105.173 74.8753 105.133 74.8344C105.094 74.7934 105.065 74.7437 105.048 74.6892C104.944 74.2732 104.741 73.8883 104.457 73.5666C104.174 73.2449 103.817 72.9959 103.417 72.8403C103.374 72.8275 103.334 72.8061 103.3 72.7774C103.266 72.7487 103.237 72.7133 103.217 72.6733C103.196 72.6333 103.184 72.5897 103.181 72.5449C103.178 72.5002 103.185 72.4553 103.199 72.4129C103.212 72.3698 103.234 72.3297 103.262 72.295C103.291 72.2602 103.326 72.2314 103.366 72.2103C103.405 72.1892 103.449 72.1762 103.494 72.1721C103.539 72.168 103.584 72.1727 103.627 72.1862C104.133 72.3771 104.587 72.6866 104.95 73.0886C105.312 73.4907 105.573 73.9737 105.711 74.4974C105.736 74.5852 105.725 74.6792 105.681 74.759C105.637 74.8389 105.563 74.8984 105.476 74.9247C105.41 74.9421 105.341 74.9421 105.275 74.9247Z" fill="#263238"/>
<path opacity="0.5" d="M89.376 74.1572C90.0824 77.8027 87.1956 77.9684 83.7332 75.7009C83.2274 75.4345 82.8026 75.0369 82.5035 74.5497C80.7156 73.4508 80.3319 71.1919 80.9337 68.4447C83.4083 68.8864 85.9596 68.4873 88.1811 67.3109C87.9313 67.798 87.5174 68.181 87.0125 68.3924C87.6399 68.558 88.2981 68.57 88.9311 68.4273C89.5642 68.2846 90.1536 67.9914 90.6493 67.5726C90.5933 67.8606 90.5933 68.1567 90.6493 68.4447C91.3295 71.1919 89.0794 72.5873 89.376 74.1572Z" fill="white"/>
<path d="M99.9725 75.6747L98.5684 80.3668C98.9488 80.5878 99.3721 80.7248 99.8099 80.7684C100.248 80.812 100.69 80.7613 101.106 80.6197C101.164 78.9009 100.773 77.1968 99.9725 75.6747Z" fill="#DE5753"/>
<path d="M98.1502 83.8554H98.0456C97.9235 83.8554 95.1675 82.8437 94.2518 81.021C94.2124 80.9446 94.2051 80.8558 94.2312 80.774C94.2574 80.6923 94.315 80.6242 94.3913 80.5849C94.4676 80.5456 94.5565 80.5382 94.6382 80.5644C94.72 80.5905 94.7881 80.6481 94.8274 80.7244C95.6297 82.3117 98.2287 83.2275 98.2549 83.2362C98.296 83.2499 98.3339 83.2717 98.3664 83.3003C98.3989 83.329 98.4253 83.3639 98.444 83.4029C98.4627 83.442 98.4734 83.4844 98.4754 83.5277C98.4773 83.571 98.4706 83.6142 98.4555 83.6548C98.4298 83.7145 98.3872 83.7653 98.333 83.801C98.2787 83.8366 98.2152 83.8555 98.1502 83.8554Z" fill="#263238"/>
<path d="M89.3849 75.9713C89.3849 75.9713 89.2541 79.8872 90.7978 81.7536C90.7978 81.7536 93.2049 78.8493 95.2631 78.8668C97.3214 78.8842 98.1499 81.3698 98.1499 81.3698L97.3998 81.7536C97.3998 81.7536 96.362 79.8959 95.2631 79.7651C94.1642 79.6343 91.5042 82.1896 92.0885 83.5327C92.6729 84.8758 95.2631 83.5327 95.2631 83.5327L96.2922 84.1083C96.2922 84.1083 94.7485 86.6637 97.7487 86.4282C100.749 86.1928 101.01 82.5385 98.1499 82.1722L98.5685 81.3524C98.5685 81.3524 101.508 81.4658 102.057 84.213C102.607 86.9602 101.185 91.1901 94.3386 90.4488C90.7193 90.0563 84.1172 86.0096 87.2046 76.9394L89.3849 75.9713Z" fill="#263238"/>
<path d="M101.107 75.3084C101.055 75.3079 101.006 75.2894 100.967 75.2561C100.757 75.0745 100.506 74.9457 100.236 74.8805C99.9662 74.8152 99.6845 74.8154 99.4146 74.8811C99.3871 74.8904 99.358 74.8938 99.3292 74.8913C99.3003 74.8888 99.2723 74.8803 99.2468 74.8663C99.2214 74.8524 99.1992 74.8333 99.1815 74.8103C99.1638 74.7873 99.1512 74.7609 99.1442 74.7328C99.1277 74.6784 99.133 74.6197 99.159 74.5692C99.1851 74.5187 99.2299 74.4804 99.2838 74.4624C99.6242 74.3795 99.9793 74.3781 100.32 74.4584C100.661 74.5387 100.979 74.6985 101.246 74.9247C101.267 74.9442 101.284 74.9679 101.295 74.9941C101.306 75.0204 101.312 75.0487 101.312 75.0773C101.312 75.1059 101.306 75.1342 101.295 75.1604C101.284 75.1867 101.267 75.2103 101.246 75.2299C101.211 75.2728 101.161 75.3009 101.107 75.3084Z" fill="#263238"/>
<path d="M92.8467 73.2327H92.8031L86.0179 71.7675C85.8478 71.726 85.6711 71.7186 85.4982 71.7458C85.3252 71.773 85.1593 71.8341 85.0101 71.9258C84.8609 72.0174 84.7313 72.1377 84.6289 72.2797C84.5264 72.4217 84.4531 72.5825 84.4132 72.753V72.8838C84.3993 72.9405 84.3635 72.9893 84.3136 73.0196C84.2637 73.0499 84.2038 73.0591 84.1472 73.0452C84.0905 73.0313 84.0416 72.9955 84.0114 72.9456C83.9811 72.8957 83.9719 72.8358 83.9858 72.7792V72.6483C84.0369 72.4212 84.133 72.2067 84.2684 72.0173C84.4038 71.8279 84.5757 71.6675 84.774 71.5456C84.9723 71.4237 85.193 71.3427 85.4231 71.3074C85.6532 71.2721 85.8881 71.2832 86.1138 71.3401L92.8903 72.7966C92.9185 72.8028 92.9451 72.8145 92.9687 72.831C92.9922 72.8475 93.0123 72.8686 93.0277 72.8929C93.0431 72.9172 93.0536 72.9444 93.0584 72.9728C93.0633 73.0011 93.0625 73.0302 93.0561 73.0583C93.0448 73.1061 93.0183 73.1489 92.9805 73.1804C92.9428 73.2119 92.8958 73.2302 92.8467 73.2327Z" fill="#263238"/>
<path d="M103.644 79.5122C103.563 79.5212 103.481 79.5212 103.4 79.5122L102.354 79.2593C101.923 79.0997 101.558 78.7993 101.319 78.4068C101.08 78.0142 100.981 77.5525 101.037 77.0964V75.0556C101.038 75.0132 101.05 74.972 101.074 74.9366C101.097 74.9011 101.129 74.8729 101.168 74.855C101.983 74.5568 102.872 74.5262 103.705 74.7678C104.577 74.8964 105.372 75.3401 105.938 76.0149C105.953 76.0463 105.961 76.0805 105.961 76.1152C105.961 76.1499 105.953 76.1841 105.938 76.2155L104.97 78.4482C104.87 78.7313 104.693 78.9809 104.459 79.1689C104.225 79.3569 103.943 79.4758 103.644 79.5122ZM101.499 75.1515V77.0528C101.499 77.9249 101.883 78.6401 102.484 78.797L103.522 79.05C103.924 79.1459 104.394 78.8057 104.639 78.2389L105.554 76.1283C105.03 75.6258 104.368 75.2891 103.653 75.1602C102.947 74.9704 102.202 74.9764 101.499 75.1777V75.1515Z" fill="#263238"/>
<path d="M96.1352 77.672C95.9327 77.6703 95.7309 77.6469 95.5334 77.6022L94.0595 77.2446C93.6647 77.1516 93.3123 76.9295 93.058 76.6135C92.8037 76.2976 92.662 75.9059 92.6554 75.5004V73.0322C92.6541 72.9872 92.6669 72.9429 92.6919 72.9054C92.7169 72.8679 92.7529 72.8391 92.7949 72.8229C92.7949 72.8229 93.9112 72.4043 96.2834 72.9712C97.4259 73.1873 98.4997 73.6749 99.4144 74.3928C99.4464 74.4305 99.4639 74.4785 99.4639 74.5279C99.4639 74.5774 99.4464 74.6253 99.4144 74.6631L98.333 76.4597C98.1025 76.8344 97.779 77.143 97.3938 77.3554C97.0086 77.5679 96.575 77.6769 96.1352 77.672ZM93.0653 73.1805V75.4742C93.065 75.7876 93.1709 76.0918 93.3657 76.3373C93.5605 76.5828 93.8327 76.7551 94.138 76.826L95.6119 77.1749C96.0478 77.2818 96.5065 77.2463 96.9208 77.0737C97.3351 76.901 97.6833 76.6003 97.9143 76.2155L98.8999 74.5846C98.0567 73.9981 97.1049 73.5859 96.1003 73.3724C95.115 73.086 94.0787 73.0205 93.0653 73.1805Z" fill="#263238"/>
<path d="M81.2304 75.1079C81.4445 75.8564 81.8043 76.5553 82.2892 77.1645C82.7742 77.7736 83.3746 78.281 84.0561 78.6575C85.8876 79.6517 87.283 78.1255 87.1783 76.1544C87.0737 74.4102 86.001 71.724 83.9689 71.5408C83.5244 71.5093 83.0791 71.5884 82.6727 71.7711C82.2664 71.9538 81.9116 72.2345 81.6403 72.5879C81.369 72.9413 81.1895 73.3565 81.118 73.7962C81.0464 74.236 81.085 74.6867 81.2304 75.1079Z" fill="#E4897B"/>
<path d="M77.7328 139.602H43.4055C40.0145 139.602 37.2656 142.351 37.2656 145.742V203.007C37.2656 206.398 40.0145 209.147 43.4055 209.147H77.7328C81.1238 209.147 83.8727 206.398 83.8727 203.007V145.742C83.8727 142.351 81.1238 139.602 77.7328 139.602Z" fill="#407BFF"/>
<path opacity="0.6" d="M77.7328 139.602H43.4055C40.0145 139.602 37.2656 142.351 37.2656 145.742V203.007C37.2656 206.398 40.0145 209.147 43.4055 209.147H77.7328C81.1238 209.147 83.8727 206.398 83.8727 203.007V145.742C83.8727 142.351 81.1238 139.602 77.7328 139.602Z" fill="white"/>
<path opacity="0.2" d="M74.314 209.147H43.1874C41.6169 209.147 40.1106 208.523 39.0001 207.412C37.8895 206.302 37.2656 204.795 37.2656 203.225V145.516C37.2656 144.738 37.4189 143.969 37.7166 143.251C38.0143 142.533 38.4506 141.88 39.0006 141.331C39.5506 140.782 40.2035 140.347 40.9219 140.05C41.6403 139.753 42.4102 139.601 43.1874 139.602H74.314C72.7458 139.602 71.2418 140.225 70.1329 141.334C69.0239 142.443 68.401 143.947 68.401 145.516V203.225C68.401 204.794 69.0237 206.299 70.1323 207.409C71.241 208.519 72.745 209.144 74.314 209.147Z" fill="black"/>
</svg>
